<svg width="100" height="100" viewBox="0 0 500 119" fill="none" xmlns="http://www.w3.org/2000/svg">
<path d="M95.6499 61.63C93.5599 62.15 91.6499 62.1 89.7699 62.1C80.4699 62.14 71.1699 62.13 61.8799 62.14C61.3199 62.14 60.7499 62.17 60.1799 62.14C59.2099 62.08 58.9399 62.58 58.9499 63.46C58.9799 65.73 58.9499 68 58.9499 70.26C58.9499 73.58 58.9099 76.9 58.9699 80.21C58.9999 81.4 58.5399 81.75 57.4099 81.73C53.3399 81.65 54.0899 82.12 53.9799 78.45C53.9299 76.76 54.1899 75.05 53.7999 73.38C53.1899 70.1 53.4699 66.75 52.9899 63.47V63.45C53.2399 63.45 53.4799 63.45 53.7199 63.45C53.8499 58.71 53.8499 53.96 53.7199 49.23H52.9799V49.21C52.8999 46.16 52.8999 43.11 52.9799 40.05H53.7199C53.8999 35.82 53.8799 31.58 53.7999 27.34C53.5899 27.34 53.3799 27.34 53.1699 27.34C53.6399 25.03 53.4199 22.69 53.4599 20.37C53.4699 19.4 53.4599 18.45 53.7999 17.52C54.2399 14.87 53.8999 12.19 53.9899 9.54C54.0599 7.54 54.0399 7.51 56.0099 7.51C59.3999 7.51 58.9299 7.23001 58.9599 10.52C58.9699 11.97 58.9599 13.43 58.9599 14.89C58.9699 17.83 58.7899 17.55 61.5299 17.55C65.2499 17.55 68.9699 17.58 72.6899 17.53C73.7999 17.52 74.4099 17.84 74.8399 18.95C78.8199 29.02 82.8599 39.06 86.8899 49.12C86.9699 49.33 87.1199 49.56 86.6899 50.09C83.5199 50.09 80.0699 50.09 76.6399 50.09C75.4899 50.09 75.4399 49.13 75.1799 48.44C73.6399 44.36 72.1499 40.26 70.6299 36.17C69.8099 33.97 68.9899 31.78 67.9599 29.04C64.8799 36.97 61.9899 44.43 59.0999 51.89C60.1799 52.34 61.0699 52.17 61.9399 52.17C71.2399 52.2 80.5399 52.24 89.8299 52.21C91.3099 52.21 92.1699 52.53 92.6699 54.08C93.4899 56.6 94.5999 59.02 95.6599 61.66L95.6499 61.63Z" fill="#1B70A6"/>
<path d="M53.7201 63.44C53.9701 66.75 54.2301 70.06 53.8001 73.38C48.5501 73.38 43.2901 73.42 38.0401 73.33C33.7101 73.26 29.7501 72.03 26.5201 69C19.0601 61.97 21.0801 49.54 30.3801 45.28C30.8901 45.05 31.4201 44.84 31.9301 44.62C31.9901 43.97 31.4501 43.84 31.0801 43.6C22.9801 38.25 24.3801 25.63 31.2201 20.82C34.2301 18.7 37.5201 17.57 41.1801 17.54C45.3901 17.51 49.5801 17.51 53.7901 17.51C54.1301 20.78 54.1301 24.06 53.7901 27.33C53.5801 27.33 53.3701 27.33 53.1601 27.33C49.9101 27.31 46.6701 27.28 43.4201 27.28C41.2601 27.28 39.5301 28.22 38.2301 29.9C36.6901 31.89 36.2301 34.14 37.2801 36.47C38.2901 38.71 40.1801 39.94 42.6201 40.01C46.0701 40.11 49.5201 40.05 52.9701 40.04H53.7101C53.9101 43.1 53.9101 46.16 53.7101 49.22H52.9701C48.9501 49.23 44.9201 49.36 40.9001 49.16C36.6201 48.94 33.4401 52.94 33.4001 56.7C33.3601 60.54 36.4101 63.43 40.6701 63.49C44.7701 63.55 48.8801 63.48 52.9901 63.46C53.2401 63.46 53.4801 63.46 53.7201 63.46V63.44Z" fill="#64B445"/>
<path d="M141.59 44.97C141.37 44.87 141.16 44.75 140.7 44.5C142.7 43.04 144.22 41.5 144.82 39.28C146.54 32.98 142.51 26.88 135.97 26.29C130.41 25.8 124.82 26.19 119.24 26.13C118.4 26.13 118.09 26.51 118.11 27.3C118.14 28.51 118.11 29.73 118.11 30.94C118.11 41.37 118.11 51.81 118.11 62.24C118.11 64.23 118.14 64.24 120.07 64.26C122.82 64.28 125.56 64.27 128.32 64.26C131.39 64.26 134.47 64.33 137.53 64.2C142.42 63.99 146.43 60.84 147.22 56.5C148.06 51.88 147.26 47.52 141.58 44.95L141.59 44.97ZM125.65 33.83C125.65 33.01 126.07 32.71 126.85 32.72C128.94 32.74 131.04 32.64 133.12 32.77C135.23 32.91 136.75 34.27 137.29 36.21C138 38.75 136.47 41.11 133.77 41.43C132.5 41.58 131.2 41.46 129.91 41.46V41.53C128.87 41.53 127.82 41.53 126.78 41.53C125.97 41.54 125.63 41.15 125.64 40.35C125.66 38.18 125.66 36.01 125.64 33.84L125.65 33.83ZM134.94 57.47C133.65 57.5 132.36 57.47 130.73 57.47C129.34 57.28 127.13 58.24 125.98 57.04C124.93 55.96 125.68 53.81 125.66 52.14C125.66 50.79 125.07 49.11 125.95 48.17C126.93 47.12 128.69 47.84 130.1 47.77C131.71 47.69 133.32 47.7 134.93 47.77C137.64 47.88 139.67 50.08 139.69 52.85C139.71 55.58 137.85 57.39 134.93 57.46L134.94 57.47Z" fill="#64B445"/>
<path d="M323.63 26.13C323.68 26.55 323.72 26.64 323.7 26.71C323.01 28.69 322.72 31.15 321.21 32.38C319.84 33.49 317.47 32.7 315.54 32.71C309.07 32.75 302.6 32.72 296.13 32.73C293.41 32.73 293.55 32.47 293.55 35.4C293.55 36.61 293.55 37.83 293.55 39.04C293.56 42.1 293.29 41.83 296.23 41.83C302.46 41.83 308.68 41.83 314.91 41.83C315.71 41.83 316.52 41.83 317.48 41.83C317.04 44.05 316.01 45.87 315.31 47.82C314.97 48.78 314.18 48.58 313.49 48.59C308.96 48.6 304.43 48.59 299.9 48.59C298.2 48.59 296.5 48.62 294.81 48.59C293.86 48.57 293.52 48.97 293.54 49.89C293.58 51.83 293.54 53.77 293.55 55.71C293.57 57.44 293.59 57.48 295.29 57.48C299.66 57.5 304.02 57.48 308.39 57.48C309.28 57.48 310.16 57.48 311.2 57.48C310.78 59.69 309.72 61.51 309.04 63.46C308.71 64.41 307.94 64.26 307.24 64.26C304.65 64.27 302.06 64.26 299.48 64.26C295.68 64.26 291.88 64.26 288.08 64.26C285.82 64.26 285.8 64.24 285.8 62.05C285.8 54.77 285.8 47.49 285.8 40.21C285.8 36.41 285.8 32.61 285.8 28.8C285.8 26.13 285.8 26.12 288.39 26.12C295.67 26.12 302.95 26.12 310.23 26.12H323.64L323.63 26.13Z" fill="#64B445"/>
<path d="M245.33 40.44C243.94 33.06 237.83 26.99 230.84 25.88C222.18 24.5 214.89 27.88 210.93 35.11C208.93 38.76 208.3 42.72 208.55 46.83C209.19 56.98 216.9 65.07 227.08 64.77C232.35 64.78 236.43 63.22 239.83 59.86C245.33 54.43 246.71 47.8 245.32 40.45L245.33 40.44ZM237.83 49.14C236.49 54.19 232.59 57.25 227.46 57.34C222.12 57.43 218.08 54.57 216.52 49.55C215.55 46.45 215.65 43.34 216.7 40.27C218.33 35.55 222.04 33.05 227.27 33.07C232.48 33.08 236.15 35.79 237.7 40.79C238.56 43.56 238.57 46.37 237.83 49.15V49.14Z" fill="#64B445"/>
<path d="M468.6 49.88C468.91 49.63 469.08 49.45 469.29 49.35C475.03 46.52 477.57 40.9 475.83 34.84C474.49 30.19 470.37 26.36 466.08 26.23C460.43 26.06 454.77 26.17 449.11 26.16C448.95 26.16 448.79 26.17 448.62 26.18C448.04 26.21 447.73 26.49 447.72 27.07C447.71 27.72 447.7 28.37 447.7 29.01C447.7 39.85 447.7 50.68 447.7 61.52C447.7 62.01 447.73 62.49 447.7 62.98C447.64 63.89 447.99 64.3 448.94 64.28C450.55 64.24 452.17 64.22 453.79 64.29C455.03 64.35 455.49 63.91 455.46 62.63C455.38 59.56 455.41 56.49 455.44 53.41C455.48 49.68 454.95 50.28 458.61 50.14C460.07 50.08 460.97 50.51 461.73 51.81C463.61 55.02 465.61 58.15 467.63 61.28C470.01 64.97 468.61 64.2 473.11 64.27C474.65 64.3 476.23 64.43 478.03 64.1C474.75 59.17 471.69 54.54 468.6 49.9V49.88ZM464.6 44.16C462.02 44.21 459.44 44.15 456.86 44.19C455.84 44.21 455.38 43.86 455.42 42.8C455.47 41.35 455.43 39.9 455.43 38.45C455.43 37 455.47 35.54 455.42 34.1C455.39 33.04 455.83 32.69 456.86 32.71C459.35 32.76 461.86 32.71 464.36 32.74C466.43 32.76 467.88 33.78 468.69 35.66C469.49 37.53 469.48 39.44 468.72 41.3C467.97 43.1 466.58 44.12 464.61 44.16H464.6Z" fill="#1B70A6"/>
<path d="M276.19 56.78C274.65 54.47 273.12 52.15 271.57 49.82C278.03 46.47 280.59 41.09 278.85 34.94C277.54 30.27 273.49 26.4 269.21 26.24C263.48 26.03 257.74 26.17 252.01 26.14C251.12 26.14 250.65 26.46 250.73 27.42C250.78 27.98 250.73 28.55 250.73 29.12C250.73 38.98 250.72 48.84 250.74 58.7C250.74 60.46 249.99 62.74 251.06 63.85C252.24 65.09 254.57 64.21 256.39 64.26C258.41 64.32 258.42 64.26 258.42 62.1C258.43 58.63 258.47 55.15 258.41 51.67C258.39 50.5 258.79 50.04 259.95 50.17C260.43 50.22 260.93 50.23 261.4 50.17C263.03 49.94 264.02 50.55 264.87 52.02C267.01 55.72 269.37 59.3 271.65 62.93C272.07 63.61 272.4 64.32 273.43 64.3C275.84 64.25 278.24 64.28 281.19 64.28C279.3 61.46 277.74 59.13 276.19 56.79V56.78ZM267.57 44.16C264.98 44.19 262.4 44.13 259.81 44.18C258.76 44.2 258.39 43.8 258.41 42.77C258.46 39.86 258.46 36.95 258.41 34.04C258.39 32.91 258.93 32.68 259.89 32.72C261.1 32.77 262.31 32.73 263.53 32.73C264.83 32.73 266.12 32.71 267.41 32.73C269.6 32.78 271.05 33.93 271.84 35.9C272.52 37.62 272.51 39.4 271.84 41.11C271.09 43 269.68 44.12 267.58 44.15L267.57 44.16Z" fill="#64B445"/>
<path d="M347.97 51.28C344.87 43.56 341.78 35.85 338.69 28.13C337.8 25.91 337.95 26.17 335.72 26.16C334.18 26.15 332.65 26.24 331.12 26.13C329.71 26.03 328.99 26.51 328.44 27.89C323.91 39.38 319.29 50.83 314.71 62.3C314.48 62.88 314.02 63.41 314.34 64.28C316.45 64.28 318.62 64.22 320.79 64.31C321.99 64.36 322.5 63.84 322.84 62.77C323.39 61.09 324.1 59.45 324.68 57.77C324.98 56.9 325.44 56.49 326.42 56.49C331.02 56.54 335.63 56.54 340.23 56.49C341.31 56.48 341.83 56.9 342.19 57.86C342.84 59.6 343.62 61.29 344.28 63.02C344.6 63.88 345.07 64.32 346.05 64.3C348.3 64.24 350.56 64.28 353.17 64.28C351.32 59.66 349.63 55.47 347.95 51.29L347.97 51.28ZM327.47 49.78C329.47 44.6 331.37 39.67 333.3 34.69C334.41 35.91 338.21 45.61 339.22 49.78H327.48H327.47Z" fill="#1B70A6"/>
<path d="M151.29 45.3C151.29 39.56 151.28 33.82 151.29 28.08C151.29 26.19 151.33 26.15 153.12 26.14C160.31 26.12 167.51 26.12 174.7 26.14C176.45 26.14 176.5 26.19 176.48 27.84C176.47 29.36 177.11 31.26 176.22 32.31C175.28 33.42 173.33 32.67 171.83 32.7C168.11 32.77 164.39 32.77 160.68 32.7C159.41 32.68 158.97 33.1 159.02 34.36C159.1 36.3 159.1 38.24 159.02 40.18C158.97 41.43 159.39 41.87 160.67 41.85C164.55 41.78 168.43 41.82 172.31 41.83C174.42 41.83 174.46 41.85 174.43 43.92C174.41 45.36 175.03 47.17 174.16 48.15C173.16 49.28 171.26 48.51 169.76 48.55C166.69 48.63 163.62 48.62 160.55 48.55C159.39 48.53 158.98 48.91 159.03 50.08C159.11 52.02 159.14 53.97 159.03 55.9C158.95 57.29 159.59 57.49 160.75 57.48C165.28 57.44 169.8 57.46 174.33 57.47C176.63 57.47 176.52 57.3 176.52 59.75C176.52 60.8 176.46 61.86 176.53 62.9C176.6 63.99 176.11 64.27 175.11 64.26C167.67 64.23 160.24 64.21 152.8 64.28C151.38 64.29 151.27 63.6 151.28 62.5C151.31 56.76 151.29 51.02 151.29 45.28V45.3Z" fill="#64B445"/>
<path d="M416.64 45.01C416.64 39.35 416.63 33.7 416.64 28.04C416.64 26.2 416.68 26.16 418.52 26.16C425.71 26.14 432.9 26.14 440.09 26.16C441.8 26.16 441.81 26.22 441.85 27.93C441.87 28.98 441.78 30.04 441.87 31.08C441.98 32.37 441.44 32.75 440.21 32.73C436.09 32.68 431.97 32.71 427.85 32.71C425.537 32.71 424.38 33.86 424.38 36.16C424.38 37.45 424.36 38.75 424.38 40.04C424.41 41.76 424.43 41.8 426.12 41.81C429.67 41.84 433.23 41.81 436.78 41.81C437.35 41.81 437.91 41.84 438.48 41.81C439.33 41.77 439.63 42.22 439.59 43C439.59 43.08 439.59 43.16 439.59 43.24C439.5 44.92 440.26 46.99 439.24 48.17C438.26 49.3 436.18 48.51 434.59 48.55C431.68 48.62 428.77 48.61 425.87 48.55C424.7 48.53 424.31 48.95 424.36 50.1C424.43 51.87 424.36 53.65 424.38 55.43C424.4 57.42 424.41 57.45 426.34 57.45C430.62 57.47 434.9 57.45 439.18 57.45C441.98 57.45 441.88 57.14 441.83 60.01C441.8 61.35 442.43 63.03 441.46 63.96C440.6 64.78 438.99 64.23 437.71 64.23C431.57 64.26 425.43 64.25 419.29 64.23C416.23 64.23 416.64 64.46 416.63 61.46C416.61 55.97 416.63 50.47 416.63 44.98L416.64 45.01Z" fill="#1B70A6"/>
<path d="M464.89 76.09C463.94 75.57 463.19 76 462.41 76.47C459.71 78.06 457.01 79.63 453.79 81.51C454.73 78.48 455.51 75.96 456.28 73.44C456.66 72.18 456.4 71.48 455.41 71.06C454.29 70.58 454.05 71.48 453.65 72.17C452.04 74.94 449.85 77.19 447.31 79.1C446.46 79.74 445.57 80.38 444.36 80.58C444.25 79.06 444.92 78.01 445.5 76.98C446.13 75.85 446.87 74.78 447.59 73.71C448.11 72.95 447.91 72.38 447.22 71.85C446.51 71.31 445.89 71.32 445.35 72.06C444.4 73.37 443.48 74.7 442.8 76.17C442.07 77.73 441.38 79.29 442.26 81.02C442.53 81.55 442.32 81.93 441.96 82.3C438.41 85.84 435.11 89.63 431.15 92.73C430.84 92.98 430.48 93.48 429.87 92.99C430.76 90.73 432.12 88.73 433.29 86.62C433.99 85.34 434.79 84.11 435.2 82.71C435.68 81.06 434.62 79.79 432.92 79.96C432.17 80.04 431.44 80.29 430.56 80.5C430.73 79.79 430.88 79.33 430.96 78.85C431.25 77.16 430.63 75.95 429.16 75.31C427.88 74.75 426.62 75.19 425.62 76.56C425.19 77.16 424.73 77.84 424.84 78.56C425.18 80.7 423.67 81.34 422.18 82C421.22 82.43 420.25 82.82 419.11 82.96C418.78 82.5 419.01 82.2 419.04 81.9C419.39 77.82 416.15 75.39 412.28 76.81C411.5 77.1 410.61 77.52 410.5 78.3C410.31 79.68 409.28 80.33 408.5 81.23C407.87 81.96 407.3 82.75 406.89 83.64C405.45 86.78 407.06 89.38 410.51 89.51C413.09 89.61 414.98 88.33 416.56 86.48C417.14 85.81 417.57 85.09 418.67 85.13C421.09 85.21 423.27 84.38 425.34 83.19C425.82 82.92 426.29 82.42 426.88 82.65C428.55 83.32 430.26 83.02 432.19 82.81C431.03 84.88 429.99 86.7 428.99 88.54C428.34 89.75 427.8 91.02 427.5 92.37C427.28 93.4 427.53 94.29 428.37 94.98C429.27 95.71 430.22 95.87 431.29 95.34C432.24 94.87 433.11 94.3 433.94 93.65C436.44 91.71 438.61 89.42 440.81 87.16C442.86 85.05 444.68 82.73 447.76 81.85C449.04 81.49 450.11 80.37 451.36 79.54C451.13 82.49 449.86 84.45 447.46 85.97C443.83 88.27 440.59 91.1 437.81 94.4C436.5 95.96 435.38 97.64 434.88 99.65C434.25 102.19 435.42 104.72 437.78 105.98C439.65 106.98 441.49 106.56 443.43 104.63C445.41 102.66 446.7 100.24 447.89 97.75C449.45 94.46 450.74 91.06 451.78 87.58C452.2 86.17 452.95 85.2 454.23 84.46C457.37 82.64 460.45 80.7 463.55 78.81C464.1 78.47 464.69 78.17 465.18 77.77C465.9 77.16 465.75 76.56 464.9 76.09H464.89ZM409.94 87.77C408.88 88.04 408.42 87.5 408.7 86.45C409.13 84.86 410.06 83.58 411.38 82.32C412.42 83.07 413.33 83.72 414.34 84.45C413.36 86.22 411.86 87.29 409.94 87.77ZM416.32 81.48C416 82.08 415.98 83.05 415.04 82.98C414.24 82.92 413.21 82.5 413.1 81.77C412.97 80.87 413.26 79.76 413.74 78.98C414.02 78.53 415.04 78.46 415.74 78.37C416.65 78.25 416.76 78.92 416.74 79.62C416.74 80.27 416.62 80.9 416.31 81.48H416.32ZM442.21 101.79C441.57 102.72 440.82 103.58 439.88 104.21C438.56 105.1 437.61 104.77 437.14 103.24C436.8 102.13 436.93 101.02 437.38 99.94C437.95 98.59 438.77 97.39 439.71 96.29C442.15 93.48 444.92 91.05 448.09 89.07C446.63 93.61 444.89 97.91 442.21 101.78V101.79Z" fill="#64B445"/>
<path d="M182.35 45.27C182.35 39.53 182.34 33.79 182.35 28.05C182.35 26.18 182.39 26.14 184.2 26.13C191.23 26.11 198.26 26.11 205.29 26.13C207.02 26.13 207.08 26.18 207.06 27.85C207.05 29.37 207.69 31.27 206.79 32.31C205.84 33.41 203.9 32.66 202.4 32.69C198.85 32.76 195.29 32.76 191.73 32.69C190.46 32.67 190.02 33.1 190.07 34.36C190.15 36.3 190.15 38.24 190.07 40.18C190.02 41.44 190.45 41.87 191.72 41.85C195.52 41.78 199.32 41.81 203.11 41.83C204.96 41.83 205.01 41.87 204.99 43.68C204.97 45.2 205.62 47.08 204.72 48.15C203.76 49.29 201.83 48.51 200.33 48.56C197.42 48.64 194.51 48.63 191.6 48.56C190.45 48.54 190.05 48.91 190.07 50.08C190.13 54.04 190.1 58 190.09 61.96C190.09 64.42 190.35 64.25 187.69 64.26C186.4 64.26 185.1 64.2 183.81 64.28C182.61 64.35 182.31 63.85 182.31 62.72C182.35 56.9 182.33 51.08 182.33 45.26L182.35 45.27Z" fill="#64B445"/>
<path d="M356.32 45.06C356.32 39.4 356.31 33.74 356.32 28.08C356.32 26.21 356.37 26.17 358.2 26.16C365.15 26.14 372.11 26.14 379.06 26.16C380.9 26.16 380.94 26.21 380.94 28.07C380.94 29.51 381.53 31.3 380.66 32.3C379.74 33.36 377.91 32.67 376.49 32.69C372.85 32.75 369.21 32.76 365.58 32.69C364.22 32.66 363.94 33.29 363.97 34.44C364.01 36.3 363.95 38.16 363.99 40.02C364.02 41.76 364.05 41.8 365.75 41.81C369.39 41.84 373.03 41.81 376.66 41.82C378.85 41.82 378.9 41.84 378.85 44.09C378.82 45.51 379.49 47.29 378.47 48.27C377.56 49.14 375.85 48.55 374.49 48.57C371.58 48.61 368.67 48.57 365.76 48.59C364.03 48.61 363.99 48.64 363.98 50.34C363.95 54.3 363.98 58.27 363.97 62.23C363.97 64.23 363.94 64.24 361.99 64.26C360.7 64.28 359.4 64.28 358.11 64.26C356.38 64.22 356.34 64.21 356.33 62.52C356.3 58.07 356.33 53.62 356.33 49.18C356.33 47.81 356.33 46.43 356.33 45.06H356.32Z" fill="#1B70A6"/>
<path d="M394.06 58.87L394.01 35.83C394.01 35.26 393.98 34.7 394.01 34.13C394.07 33.11 393.65 32.69 392.6 32.7C390.01 32.74 387.43 32.66 384.84 32.73C383.59 32.76 383.06 32.35 383.19 31.07C383.34 29.55 382.6 27.69 383.5 26.6C384.47 25.43 386.39 26.18 387.88 26.17C395.31 26.11 402.75 26.14 410.19 26.15C412.41 26.15 412.41 26.17 412.43 28.42C412.43 29.39 412.38 30.36 412.44 31.33C412.5 32.39 412.05 32.75 411.02 32.72C408.68 32.67 406.33 32.7 403.99 32.71C401.69 32.71 401.68 32.72 401.68 35.14C401.68 42.66 401.68 50.18 401.68 57.7C399.27 58.99 396.77 59.62 394.05 58.86L394.06 58.87Z" fill="#1B70A6"/>
<path d="M405.03 71.7C399.63 72.28 394.48 73.19 389.33 74.15C387.44 74.5 387.34 74.45 386.26 72.67C388.79 71.75 391.45 71.54 394.04 71.09C397.54 70.48 401.06 70 404.59 69.62C405.85 69.48 406.39 68.96 406.76 67.82C407.78 64.76 408.89 61.72 410.03 58.7C410.28 58.03 410.36 56.95 411.6 57.38C412.61 57.73 412.94 58.5 412.52 59.71C411.72 62 410.84 64.25 410.06 66.55C409.81 67.29 409.29 68 409.52 68.93C410.79 69.13 412.06 68.86 413.34 68.79C419.48 68.44 425.61 68.18 431.68 69.55C432.7 69.78 433.69 70.15 434.66 70.52C435.26 70.75 435.81 71.09 435.91 71.81C435.53 72.48 435.04 72.12 434.63 71.97C431.54 70.89 428.35 70.51 425.1 70.45C420.09 70.36 415.08 70.52 410.09 71.03C409.03 71.14 408.31 71.37 407.92 72.52C404.73 81.84 401.12 91.01 398.56 100.54C398.06 102.4 397.84 104.3 397.54 106.21C395.42 105.54 395.26 105.38 395.38 103.61C395.52 101.67 396.06 99.8 396.58 97.93C398.76 90.06 401.66 82.43 404.31 74.72C404.62 73.82 405.17 72.97 405.03 71.7Z" fill="#64B445"/>
<path d="M406.48 62.3C406.11 63.21 405.53 63.97 404.89 64.69C403.29 66.5 402.8 66.45 401.35 64.32C401.22 63.96 401.33 63.65 401.53 63.35C401.59 63.27 401.65 63.18 401.72 63.1C401.72 63.33 401.73 63.55 401.74 63.78C402.3 63.59 402.69 63.15 403.06 62.74C403.74 61.98 405.13 61.26 404.68 60.26C404.13 59.06 402.71 59.77 401.63 59.93C401.63 60.12 401.64 60.31 401.64 60.49C401.56 60.49 401.48 60.49 401.4 60.49C398.89 60.68 396.55 62.01 393.96 61.66C386.59 63.68 379.98 67.06 374.53 72.53C374.3 72.76 374.1 73.02 373.91 73.28C371.48 76.48 371.99 78.66 375.59 80.38C377.64 81.36 379.83 81.93 381.98 82.65C384.2 83.4 386.43 84.13 388.43 85.37C393.18 88.32 393.81 92.83 389.79 96.63C385.31 100.88 379.88 102.92 373.67 102.6C371.4 102.48 369.45 101.58 368.09 99.64C367.87 99.32 367.52 98.94 367.85 98.57C368.29 98.06 368.87 98.43 369.11 98.74C371.34 101.6 374.31 100.87 377.13 100.33C380.5 99.68 383.56 98.22 386.3 96.12C387.6 95.13 388.74 93.99 389.46 92.5C390.52 90.28 390.08 88.42 388.11 86.94C387 86.1 385.73 85.57 384.44 85.11C382.16 84.29 379.85 83.55 377.58 82.72C375.6 81.99 373.71 81.09 372.14 79.63C369.68 77.34 369.4 75.12 371.23 72.28C372.34 70.56 373.83 69.2 375.44 67.96C380.23 64.26 385.61 61.73 391.33 59.84C392.24 59.54 393.24 59.46 394.04 58.87C396.6 58.58 399.09 57.81 401.67 57.71C402.77 57.92 403.91 57.86 404.95 58.38C406.71 59.25 407.21 60.51 406.47 62.3H406.48Z" fill="#64B445"/>
<path d="M96.6 73.37C92.66 73.37 89.19 73.37 85.72 73.37C85.07 73.37 84.45 73.4 84.13 72.61C83.06 69.93 81.96 67.27 80.73 64.27C84.74 64.27 88.42 64.27 92.1 64.27C92.65 64.27 93.04 64.47 93.24 64.97C94.32 67.65 95.38 70.33 96.59 73.38L96.6 73.37Z" fill="#1E70A6"/>
<path d="M94.2 52.21C97.41 52.21 100.14 52.22 102.88 52.21C103.59 52.21 104.1 52.38 104.37 53.12C105.42 55.97 106.5 58.81 107.69 61.97C104.59 61.97 101.79 61.97 98.99 61.97C98.35 61.97 97.98 61.66 97.74 61.06C96.63 58.24 95.49 55.43 94.2 52.22V52.21Z" fill="#64B445"/>
<path d="M401.74 63.78C401.61 63.96 401.48 64.14 401.35 64.32C399.52 64.3 397.68 64.3 395.85 64.27C394.1 64.24 394.1 64.22 394 62.39C393.99 62.15 393.97 61.91 393.96 61.67C396.42 60.64 398.99 60.17 401.63 59.93C401.63 60.12 401.64 60.31 401.64 60.49C401.67 61.36 401.7 62.23 401.72 63.09C401.72 63.32 401.73 63.54 401.74 63.77V63.78Z" fill="#2071A5"/>
<path d="M110.32 51C109.69 51.08 109.46 51.12 109.22 51.13C106.133 51.2033 104.117 49.6367 103.17 46.43C104.73 46.07 106.29 46.28 107.83 46.29C108.31 46.29 108.5 46.67 108.66 47.05C109.18 48.3 109.71 49.55 110.32 51.01V51Z" fill="#64B445"/>
<path d="M100.63 47.62C96.96 48.16 96.95 48.15 96.05 44.68C99.99 43.82 99.88 44.49 100.63 47.62Z" fill="#64B445"/>
</svg>
