<svg width="180" height="35" viewBox="0 0 193 45" fill="none" xmlns="http://www.w3.org/2000/svg">
<path d="M32.5358 18.4253C32.5209 21.4129 32.5273 24.4005 32.5273 27.3881C32.5273 30.3757 32.5209 33.3634 32.5358 36.351C32.538 36.7288 32.4697 36.8646 32.0516 36.8551C30.6673 36.8254 29.2808 36.8264 27.8954 36.8551C27.4762 36.8636 27.4058 36.7235 27.409 36.3446C27.4271 34.2411 27.3984 32.1365 27.4314 30.034C27.4399 29.5405 27.2842 29.4312 26.8406 29.4768C26.4886 29.5118 26.127 29.5171 25.7762 29.4747C25.3293 29.4216 25.2664 29.6148 25.2696 30.0043C25.2866 32.1259 25.2653 34.2464 25.2888 36.368C25.2941 36.7808 25.1704 36.8604 24.7854 36.854C23.4181 36.8296 22.0497 36.8264 20.6824 36.8551C20.2579 36.8636 20.1577 36.7405 20.1588 36.3276C20.1726 30.5816 20.1619 24.8367 20.1779 19.0918C20.1801 18.6216 20.082 18.4157 19.5775 18.4847C19.1594 18.542 18.608 18.3138 18.3414 18.5685C18.0492 18.8487 18.2507 19.4038 18.2475 19.8379C18.2347 21.7111 18.2326 23.5854 18.2507 25.4586C18.2539 25.8067 18.159 25.9001 17.8113 25.8948C16.4088 25.8747 15.0042 25.8726 13.6017 25.8959C13.2188 25.9023 13.1367 25.7845 13.1367 25.4204C13.1485 19.4282 13.1474 13.4349 13.1378 7.44271C13.1378 7.10734 13.2124 6.98847 13.5751 6.99378C14.9957 7.01606 16.4174 7.01394 17.838 6.99484C18.1665 6.99059 18.2529 7.07444 18.2507 7.40345C18.2347 9.56005 18.2507 11.7167 18.2337 13.8733C18.2294 14.2744 18.3126 14.4527 18.752 14.4071C19.121 14.3689 19.4996 14.3731 19.8697 14.4071C20.2835 14.4442 20.4094 14.3148 20.4051 13.8871C20.3817 11.7665 20.4051 9.64496 20.3859 7.52338C20.3817 7.1222 20.4659 6.98104 20.9032 6.99165C22.2523 7.02349 23.6036 7.02349 24.9528 6.99165C25.3933 6.98104 25.5042 7.09036 25.5031 7.53505C25.4861 13.28 25.4989 19.0249 25.4797 24.7698C25.4786 25.2527 25.5981 25.43 26.0833 25.361C26.5153 25.3005 27.0987 25.5531 27.3504 25.257C27.5626 25.0065 27.4154 24.4483 27.4165 24.0259C27.4186 22.1526 27.4271 20.2783 27.409 18.4051C27.4058 18.0527 27.5082 17.953 27.8559 17.9572C29.2594 17.9731 30.663 17.9763 32.0655 17.9551C32.4398 17.9487 32.538 18.0559 32.5358 18.4253Z" fill="#F8FAFC"/>
<path d="M38.4623 1.27198C27.909 1.26985 17.3546 1.27092 6.80026 1.27198C3.61454 1.27198 1.29484 3.57186 1.29377 6.73353C1.2927 17.2353 1.2927 27.7381 1.29377 38.241C1.29377 41.4037 3.6124 43.7068 6.79599 43.7078C12.0551 43.7089 17.3141 43.7078 22.5732 43.7078C27.8322 43.7078 33.1627 43.7089 38.4581 43.7078C41.6065 43.7057 43.9368 41.3963 43.9379 38.2717C43.939 27.7519 43.939 17.2321 43.9379 6.71125C43.9379 3.58566 41.6086 1.27198 38.4623 1.27198ZM40.7394 38.1476C40.7394 39.6695 39.8712 40.5249 38.3258 40.5249H6.88132C5.35191 40.5249 4.49229 39.66 4.49229 38.1221C4.49122 27.6925 4.49122 17.2618 4.49229 6.83118C4.49229 5.30924 5.36045 4.45382 6.90585 4.45382H38.3503C39.8797 4.45382 40.7394 5.31879 40.7394 6.85665C40.7404 17.2873 40.7404 27.7169 40.7394 38.1476Z" fill="#F8FAFC"/>
<path d="M32.5358 36.351C32.538 36.7288 32.4697 36.8646 32.0516 36.8551C30.6673 36.8254 29.2808 36.8264 27.8954 36.8551C27.4762 36.8636 27.4058 36.7235 27.409 36.3446C27.4271 34.2411 27.3984 32.1365 27.4314 30.034C27.4399 29.5405 27.2842 29.4312 26.8406 29.4768C26.4886 29.5118 26.127 29.5171 25.7762 29.4747C25.3293 29.4216 25.2664 29.6148 25.2696 30.0043C25.2866 32.1259 25.2653 34.2464 25.2888 36.368C25.2941 36.7808 25.1704 36.8604 24.7854 36.854C23.4181 36.8296 22.0497 36.8264 20.6824 36.8551C20.2579 36.8636 20.1577 36.7405 20.1588 36.3276C20.1726 30.5816 20.1619 24.8367 20.1779 19.0918C20.1801 18.6216 20.082 18.4157 19.5775 18.4847C19.1594 18.542 18.608 18.3138 18.3414 18.5685C18.0492 18.8487 18.2507 19.4038 18.2475 19.8379C18.2347 21.7111 18.2326 23.5854 18.2507 25.4586C18.2539 25.8067 18.159 25.9001 17.8113 25.8948C16.4088 25.8747 15.0042 25.8726 13.6017 25.8959C13.2188 25.9023 13.1367 25.7845 13.1367 25.4204C13.1485 19.4282 13.1474 13.4349 13.1378 7.44271C13.1378 7.10734 13.2124 6.98847 13.5751 6.99378C14.9957 7.01606 16.4174 7.01394 17.838 6.99484C18.1665 6.99059 18.2529 7.07444 18.2507 7.40345C18.2347 9.56005 18.2507 11.7167 18.2337 13.8733C18.2294 14.2744 18.3126 14.4527 18.752 14.4071C19.121 14.3689 19.4996 14.3731 19.8697 14.4071C20.2835 14.4442 20.4094 14.3148 20.4051 13.8871C20.3817 11.7665 20.4051 9.64496 20.3859 7.52338C20.3817 7.1222 20.4659 6.98104 20.9032 6.99165C22.2523 7.02349 23.6036 7.02349 24.9528 6.99165C25.3933 6.98104 25.5042 7.09036 25.5031 7.53505C25.4861 13.28 25.4989 19.0249 25.4797 24.7698C25.4786 25.2527 25.5981 25.43 26.0833 25.361C26.5153 25.3005 27.0987 25.5531 27.3504 25.257C27.5626 25.0065 27.4154 24.4483 27.4165 24.0259C27.4186 22.1526 27.4271 20.2783 27.409 18.4051C27.4058 18.0527 27.5082 17.953 27.8559 17.9572C29.2594 17.9731 30.663 17.9763 32.0655 17.9551C32.4398 17.9487 32.538 18.0559 32.5358 18.4253C32.5209 21.4129 32.5273 24.4005 32.5273 27.3881C32.5273 30.3757 32.5209 33.3634 32.5358 36.351Z" fill="#F8FAFC"/>
<path d="M32.5358 36.351C32.538 36.7288 32.4697 36.8646 32.0516 36.8551C30.6673 36.8254 29.2808 36.8264 27.8954 36.8551C27.4762 36.8636 27.4058 36.7235 27.409 36.3446C27.4271 34.2411 27.3984 32.1365 27.4314 30.034C27.4399 29.5405 27.2842 29.4312 26.8406 29.4768C26.4886 29.5118 26.127 29.5171 25.7762 29.4747C25.3293 29.4216 25.2664 29.6148 25.2696 30.0043C25.2866 32.1259 25.2653 34.2464 25.2888 36.368C25.2941 36.7808 25.1704 36.8604 24.7854 36.854C23.4181 36.8296 22.0497 36.8264 20.6824 36.8551C20.2579 36.8636 20.1577 36.7405 20.1588 36.3276C20.1726 30.5816 20.1619 24.8367 20.1779 19.0918C20.1801 18.6216 20.082 18.4157 19.5775 18.4847C19.1594 18.542 18.608 18.3138 18.3414 18.5685C18.0492 18.8487 18.2507 19.4038 18.2475 19.8379C18.2347 21.7111 18.2326 23.5854 18.2507 25.4586C18.2539 25.8067 18.159 25.9001 17.8113 25.8948C16.4088 25.8747 15.0042 25.8726 13.6017 25.8959C13.2188 25.9023 13.1367 25.7845 13.1367 25.4204C13.1485 19.4282 13.1474 13.4349 13.1378 7.44271C13.1378 7.10734 13.2124 6.98847 13.5751 6.99378C14.9957 7.01606 16.4174 7.01394 17.838 6.99484C18.1665 6.99059 18.2529 7.07444 18.2507 7.40345C18.2347 9.56005 18.2507 11.7167 18.2337 13.8733C18.2294 14.2744 18.3126 14.4527 18.752 14.4071C19.121 14.3689 19.4996 14.3731 19.8697 14.4071C20.2835 14.4442 20.4094 14.3148 20.4051 13.8871C20.3817 11.7665 20.4051 9.64496 20.3859 7.52338C20.3817 7.1222 20.4659 6.98104 20.9032 6.99165C22.2523 7.02349 23.6036 7.02349 24.9528 6.99165C25.3933 6.98104 25.5042 7.09036 25.5031 7.53505C25.4861 13.28 25.4989 19.0249 25.4797 24.7698C25.4786 25.2527 25.5981 25.43 26.0833 25.361C26.5153 25.3005 27.0987 25.5531 27.3504 25.257C27.5626 25.0065 27.4154 24.4483 27.4165 24.0259C27.4186 22.1526 27.4271 20.2783 27.409 18.4051C27.4058 18.0527 27.5082 17.953 27.8559 17.9572C29.2594 17.9731 30.663 17.9763 32.0655 17.9551C32.4398 17.9487 32.538 18.0559 32.5358 18.4253C32.5209 21.4129 32.5273 24.4005 32.5273 27.3881C32.5273 30.3757 32.5209 33.3634 32.5358 36.351Z" fill="#F8FAFC"/>
<path d="M48.723 21.8016C48.723 17.9111 48.7511 14.0207 48.702 10.1302C48.6915 9.18464 48.8984 8.77292 49.9437 8.83224C51.8029 8.9404 54.2338 8.22861 55.3773 9.14975C56.577 10.1163 55.6509 12.632 55.7526 14.4673C55.8052 15.3919 55.8579 16.3375 55.7386 17.2517C55.5351 18.7904 56.2227 19.0939 57.6118 19.0207C58.608 18.9683 58.7377 18.5741 58.7237 17.7541C58.6886 15.2 58.7518 12.6424 58.6886 10.0883C58.6641 9.10788 58.9447 8.77641 59.9479 8.82875C61.4598 8.909 62.9822 8.88458 64.501 8.83573C65.3429 8.80782 65.7393 8.96483 65.7323 9.95576C65.6937 17.8518 65.6972 25.7513 65.7288 33.6509C65.7288 34.4952 65.4727 34.75 64.6378 34.722C63.0067 34.6662 61.3686 34.6557 59.734 34.722C58.836 34.7604 58.6816 34.3906 58.6957 33.609C58.7342 30.9956 58.629 28.3787 58.7448 25.7723C58.8044 24.4603 58.0993 24.572 57.2505 24.579C56.4191 24.5859 55.6755 24.4464 55.7316 25.7618C55.8403 28.3124 55.7281 30.87 55.7807 33.4241C55.7982 34.3661 55.5772 34.7814 54.5319 34.722C52.6763 34.6139 50.2559 35.3222 49.1054 34.408C47.9057 33.452 48.7897 30.9432 48.7406 29.1184C48.6739 26.6795 48.723 24.2405 48.723 21.8016Z" fill="#F8FAFC"/>
<path d="M187.075 17.192C186.956 15.6533 185.911 14.8647 184.353 14.795C182.189 14.6973 179.958 14.3344 178.299 16.7768C178.299 15.4474 178.309 14.5786 178.295 13.7098C178.267 12.1536 178.818 10.0636 178.025 9.18085C177.103 8.15154 174.956 8.99592 173.353 8.83193C172.269 8.72377 171.981 9.10409 171.988 10.1822C172.038 17.9003 172.034 25.6219 171.992 33.34C171.988 34.3554 172.167 34.8334 173.314 34.7217C174.412 34.6171 175.538 34.6136 176.636 34.7217C177.867 34.8439 178.59 34.5473 178.422 32.9771C179.204 34.5542 180.449 34.8124 181.866 34.7427C182.68 34.7043 183.501 34.6868 184.315 34.7043C185.876 34.7427 186.826 33.8704 186.967 32.4782C187.482 27.3909 187.475 22.2863 187.075 17.192ZM180.937 28.5354C180.86 29.2367 180.582 29.9101 179.632 29.8613C178.727 29.8124 178.401 29.1565 178.348 28.4621C178.257 27.1921 178.323 25.908 178.323 24.631H178.302C178.302 23.4691 178.267 22.3072 178.313 21.1453C178.348 20.3044 178.573 19.4565 179.604 19.3798C180.607 19.303 180.902 20.1474 180.961 20.8871C181.161 23.4342 181.207 25.9918 180.937 28.5354Z" fill="#F8FAFC"/>
<path d="M117.996 13.557C117.986 12.0182 118.705 9.9038 117.667 9.09082C116.681 8.31971 114.646 8.94078 113.086 8.82564C111.903 8.73492 111.749 9.28272 111.781 10.2632C111.837 12.2625 111.798 14.2688 111.798 16.4356C109.9 14.848 107.396 14.2723 105.126 14.8619C103.902 15.1829 102.976 15.9889 102.966 17.28C102.92 22.1544 102.934 27.0322 103.05 31.9066C103.071 32.8836 103.365 33.9548 104.551 34.4572C106.414 35.2458 110.111 34.7224 111.837 33.0999C111.553 34.534 112.124 34.8027 113.149 34.7189C114.134 34.6352 115.141 34.6108 116.12 34.7224C117.579 34.8864 118.091 34.5166 118.063 32.8941C117.947 26.453 118.039 20.005 117.996 13.557ZM111.696 28.6198C111.651 29.3281 111.321 29.8445 110.521 29.8585C109.655 29.8689 109.237 29.3526 109.213 28.5605C109.171 27.2311 109.202 25.8983 109.202 24.5654H109.188C109.188 23.3477 109.171 22.1334 109.195 20.9192C109.209 20.0818 109.55 19.377 110.486 19.3909C111.304 19.4014 111.672 20.019 111.71 20.8075C111.847 23.4105 111.868 26.0169 111.696 28.6198Z" fill="#F8FAFC"/>
<path d="M142.883 16.7901C144.953 14.264 147.369 14.6408 149.72 15.042C151.267 15.3072 151.926 16.5354 151.94 17.9799C151.996 23.2626 151.968 28.5452 152 33.8244C152.003 34.5117 151.747 34.6618 151.091 34.7211C145.707 35.2096 145.707 35.2235 145.707 29.9269C145.707 27.1426 145.707 24.3547 145.7 21.5703C145.696 20.548 145.609 19.3966 144.283 19.4105C142.967 19.4245 142.89 20.5794 142.89 21.6017C142.883 25.548 142.858 29.4978 142.904 33.444C142.915 34.3861 142.715 34.7944 141.676 34.7246C140.056 34.6129 137.937 35.2375 136.941 34.4315C135.888 33.5836 136.629 31.3924 136.618 29.7909C136.579 23.2905 136.629 16.7901 136.576 10.2898C136.569 9.17323 136.836 8.73708 138.014 8.83128C139.572 8.95689 141.627 8.34978 142.567 9.13135C143.56 9.9548 142.802 12.0693 142.876 13.615C142.918 14.5326 142.883 15.4538 142.883 16.7901Z" fill="#F8FAFC"/>
<path d="M127.276 29.8955C128.128 28.744 128.514 27.5089 128.524 26.1341C128.549 22.8822 128.644 19.6268 128.602 16.3749C128.584 15.206 128.826 14.6512 130.117 14.8117C131.657 15.0001 133.737 14.1488 134.617 15.1746C135.375 16.0574 134.842 18.0532 134.842 19.5605C134.838 23.0322 135.01 26.5249 133.744 29.8676C133.288 31.0748 132.748 32.3135 131.808 33.1265C130.394 34.3442 130.222 35.7713 130.257 37.4566C130.334 41.0365 130.282 41.04 126.665 41.04C124.301 41.04 124.206 41.0365 124.326 38.6568C124.445 36.3365 124.122 34.3721 122.379 32.5333C120.351 30.3979 119.878 27.4845 119.776 24.6094C119.674 21.7657 119.758 18.915 119.681 16.0713C119.657 15.1013 119.92 14.7105 120.934 14.8117C122.54 14.9757 124.624 14.1348 125.634 15.1537C126.56 16.0888 125.858 18.1404 125.904 19.7001C125.967 21.9052 125.999 24.1139 126.037 26.3226C126.062 27.631 126.448 28.8103 127.283 29.899L127.276 29.8955Z" fill="#F8FAFC"/>
<path d="M83.2874 19.3182C83.2838 17.8772 83.7539 15.9965 83.0243 15.1172C82.2526 14.1821 80.2882 14.9498 78.85 14.8137C77.6749 14.7055 76.7313 14.8311 77.0751 16.656C75.0371 14.7055 74.574 14.566 71.5047 14.7683C69.0984 14.9288 68.2039 15.8604 68.1934 18.2889C68.1758 22.3538 68.2039 26.4222 68.1758 30.4906C68.1723 31.3769 68.3477 32.2178 68.5862 33.0552C68.8283 33.9065 69.4421 34.5939 70.2805 34.6044C72.5676 34.6288 75.0581 35.5569 77.1066 33.0063C76.8611 34.4613 77.3417 34.8102 78.408 34.723C79.5656 34.6253 80.7512 34.6114 81.9088 34.723C83.119 34.8416 83.3294 34.3462 83.3189 33.261C83.2628 28.6134 83.3049 23.9658 83.2874 19.3182ZM76.9839 28.5611C76.9383 29.3566 76.5664 29.9044 75.686 29.8591C74.8161 29.8102 74.4933 29.2206 74.4793 28.446C74.4583 27.1724 74.4723 25.8954 74.4723 24.6218H74.4793C74.4793 23.3483 74.4583 22.0747 74.4863 20.8011C74.5004 20.0196 74.8792 19.4055 75.707 19.388C76.5384 19.3706 76.9348 19.9637 76.9839 20.7488C77.1417 23.3517 77.1347 25.9582 76.9839 28.5611Z" fill="#F8FAFC"/>
<path d="M91.6171 16.7558C93.6586 14.7879 96.7139 14.2401 98.9062 15.1403C100.302 15.716 100.751 16.864 100.762 18.2073C100.797 23.3783 100.772 28.5528 100.811 33.7272C100.814 34.4879 100.586 34.7461 99.8183 34.7182C98.4187 34.6693 97.0085 34.6414 95.6124 34.7251C94.6057 34.7845 94.4899 34.3309 94.497 33.4969C94.532 29.7182 94.5145 25.9428 94.5075 22.164C94.5075 21.6407 94.5496 21.0998 94.4268 20.6044C94.2725 19.9763 93.9322 19.4111 93.1535 19.3692C92.3502 19.3238 91.9994 19.8891 91.817 20.5137C91.6767 21.0022 91.6942 21.5465 91.6907 22.0629C91.6802 25.8417 91.6381 29.6205 91.7118 33.3958C91.7328 34.4983 91.4101 34.8333 90.3437 34.7182C88.7407 34.5472 86.5869 35.409 85.6644 34.3623C84.8716 33.4655 85.4083 31.3825 85.4048 29.8228C85.3908 25.2904 85.4434 20.7544 85.3697 16.222C85.3522 15.0461 85.7205 14.7111 86.8395 14.8053C87.8848 14.8961 88.9476 14.8996 89.993 14.8053C91.2417 14.6902 92.0029 14.9624 91.6101 16.7593L91.6171 16.7558Z" fill="#F8FAFC"/>
<path d="M169.509 22.9818C169.509 25.2463 169.548 27.5108 169.499 29.7753C169.429 32.9295 167.777 34.5869 164.609 34.6811C162.803 34.7369 160.989 34.7265 159.179 34.6846C155.983 34.6078 154.268 33.0865 154.177 29.88C154.044 25.18 154.145 20.4731 154.107 15.7697C154.1 14.9776 154.405 14.7264 155.131 14.8171C155.187 14.8241 155.247 14.8171 155.306 14.8171C156.934 14.845 159.042 14.2658 160.056 15.0649C161.126 15.9092 160.347 18.1005 160.389 19.702C160.452 22.1968 160.389 24.695 160.414 27.1933C160.424 28.3657 160.102 29.9986 161.869 29.9777C163.693 29.9567 163.216 28.2645 163.23 27.1375C163.276 23.4808 163.287 19.8206 163.223 16.1605C163.206 15.0998 163.465 14.7055 164.574 14.7962C165.791 14.8939 167.033 14.9078 168.247 14.7962C169.422 14.6845 169.573 15.2009 169.544 16.1884C169.481 18.4529 169.523 20.7173 169.523 22.9818H169.509Z" fill="#F8FAFC"/>
</svg>
