<svg width="1784" height="418" viewBox="0 0 1784 418" fill="none" xmlns="http://www.w3.org/2000/svg">
<path d="M300.652 171.155C300.514 198.906 300.573 226.658 300.573 254.41C300.573 282.161 300.514 309.913 300.652 337.665C300.672 341.174 300.041 342.436 296.176 342.347C283.38 342.071 270.564 342.081 257.757 342.347C253.883 342.426 253.232 341.125 253.262 337.605C253.43 318.066 253.163 298.517 253.469 278.987C253.548 274.403 252.109 273.387 248.007 273.811C244.754 274.136 241.412 274.186 238.169 273.791C234.038 273.299 233.456 275.093 233.486 278.711C233.644 298.418 233.446 318.115 233.663 337.822C233.713 341.657 232.569 342.397 229.01 342.338C216.372 342.111 203.723 342.081 191.085 342.347C187.161 342.426 186.234 341.283 186.244 337.448C186.372 284.074 186.274 230.71 186.421 177.346C186.441 172.979 185.534 171.066 180.871 171.707C177.007 172.239 171.91 170.12 169.445 172.486C166.744 175.088 168.607 180.244 168.578 184.276C168.459 201.677 168.44 219.087 168.607 236.487C168.637 239.721 167.759 240.588 164.545 240.539C151.582 240.351 138.598 240.332 125.634 240.549C122.095 240.608 121.336 239.513 121.336 236.132C121.444 180.471 121.434 124.8 121.346 69.139C121.346 66.0238 122.036 64.9196 125.388 64.9689C138.519 65.1759 151.66 65.1562 164.792 64.9788C167.828 64.9393 168.627 65.7182 168.607 68.7743C168.459 88.8067 168.607 108.839 168.449 128.872C168.41 132.598 169.179 134.254 173.241 133.83C176.652 133.476 180.151 133.515 183.572 133.83C187.397 134.176 188.561 132.973 188.521 129C188.304 109.303 188.521 89.5954 188.344 69.8883C188.304 66.1618 189.083 64.8506 193.125 64.9492C205.596 65.2449 218.087 65.2449 230.558 64.9492C234.629 64.8506 235.655 65.866 235.645 69.9967C235.487 123.361 235.605 176.725 235.428 230.089C235.418 234.574 236.522 236.221 241.008 235.58C245.001 235.018 250.393 237.364 252.72 234.614C254.682 232.287 253.321 227.102 253.331 223.178C253.351 205.778 253.43 188.368 253.262 170.967C253.232 167.694 254.179 166.768 257.393 166.807C270.367 166.955 283.34 166.985 296.304 166.787C299.765 166.728 300.672 167.724 300.652 171.155Z" fill="#F68720"/>
<path d="M355.406 11.8416C257.856 11.8219 160.297 11.8317 62.737 11.8416C33.2897 11.8416 11.8475 33.2049 11.8376 62.5734C11.8277 160.123 11.8277 257.683 11.8376 355.242C11.8376 384.621 33.2699 406.014 62.6975 406.023C111.31 406.033 159.922 406.023 208.534 406.023C257.146 406.023 306.419 406.033 355.367 406.023C384.469 406.004 406.01 384.552 406.02 355.528C406.029 257.811 406.029 160.094 406.02 62.3663C406.02 33.3331 384.489 11.8416 355.406 11.8416ZM376.454 354.375C376.454 368.512 368.429 376.458 354.144 376.458H63.4862C49.3492 376.458 41.4032 368.423 41.4032 354.138C41.3933 257.259 41.3933 160.37 41.4032 63.4804C41.4032 49.3433 49.428 41.3973 63.713 41.3973H354.371C368.508 41.3973 376.454 49.432 376.454 63.717C376.464 160.606 376.464 257.486 376.454 354.375Z" fill="#F68720"/>
<path d="M300.652 337.665C300.672 341.174 300.041 342.436 296.176 342.347C283.38 342.071 270.564 342.081 257.757 342.347C253.883 342.426 253.232 341.125 253.262 337.605C253.43 318.066 253.163 298.517 253.469 278.987C253.548 274.403 252.109 273.387 248.007 273.811C244.754 274.136 241.412 274.186 238.169 273.791C234.038 273.299 233.456 275.093 233.486 278.711C233.644 298.418 233.446 318.115 233.663 337.822C233.713 341.657 232.569 342.397 229.01 342.338C216.372 342.111 203.723 342.081 191.085 342.347C187.161 342.426 186.234 341.283 186.244 337.448C186.372 284.074 186.274 230.71 186.421 177.346C186.441 172.979 185.534 171.066 180.871 171.707C177.007 172.239 171.91 170.12 169.445 172.486C166.744 175.088 168.607 180.244 168.578 184.276C168.459 201.677 168.44 219.087 168.607 236.487C168.637 239.721 167.759 240.588 164.545 240.539C151.582 240.351 138.598 240.332 125.634 240.549C122.095 240.608 121.336 239.513 121.336 236.132C121.444 180.471 121.434 124.8 121.346 69.139C121.346 66.0238 122.036 64.9196 125.388 64.9689C138.519 65.1759 151.66 65.1562 164.792 64.9788C167.828 64.9393 168.627 65.7182 168.607 68.7743C168.459 88.8067 168.607 108.839 168.449 128.872C168.41 132.598 169.179 134.254 173.241 133.83C176.652 133.476 180.151 133.515 183.572 133.83C187.397 134.176 188.561 132.973 188.521 129C188.304 109.303 188.521 89.5954 188.344 69.8883C188.304 66.1618 189.083 64.8506 193.125 64.9492C205.596 65.2449 218.087 65.2449 230.558 64.9492C234.629 64.8506 235.655 65.866 235.645 69.9967C235.487 123.361 235.605 176.725 235.428 230.089C235.418 234.574 236.522 236.221 241.008 235.58C245.001 235.018 250.393 237.364 252.72 234.614C254.682 232.287 253.321 227.102 253.331 223.178C253.351 205.778 253.43 188.368 253.262 170.967C253.232 167.694 254.179 166.768 257.393 166.807C270.367 166.955 283.34 166.985 296.304 166.787C299.765 166.728 300.672 167.724 300.652 171.155C300.514 198.906 300.573 226.658 300.573 254.41C300.573 282.161 300.514 309.913 300.652 337.665Z" fill="#194FA2"/>
<path d="M300.652 337.665C300.672 341.174 300.041 342.436 296.176 342.347C283.38 342.071 270.564 342.081 257.757 342.347C253.883 342.426 253.232 341.125 253.262 337.605C253.43 318.066 253.163 298.517 253.469 278.987C253.548 274.403 252.109 273.387 248.007 273.811C244.754 274.136 241.412 274.186 238.169 273.791C234.038 273.299 233.456 275.093 233.486 278.711C233.644 298.418 233.446 318.115 233.663 337.822C233.713 341.657 232.569 342.397 229.01 342.338C216.372 342.111 203.723 342.081 191.085 342.347C187.161 342.426 186.234 341.283 186.244 337.448C186.372 284.074 186.274 230.71 186.421 177.346C186.441 172.979 185.534 171.066 180.871 171.707C177.007 172.239 171.91 170.12 169.445 172.486C166.744 175.088 168.607 180.244 168.578 184.276C168.459 201.677 168.44 219.087 168.607 236.487C168.637 239.721 167.759 240.588 164.545 240.539C151.582 240.351 138.598 240.332 125.634 240.549C122.095 240.608 121.336 239.513 121.336 236.132C121.444 180.471 121.434 124.8 121.346 69.139C121.346 66.0238 122.036 64.9196 125.388 64.9689C138.519 65.1759 151.66 65.1562 164.792 64.9788C167.828 64.9393 168.627 65.7182 168.607 68.7743C168.459 88.8067 168.607 108.839 168.449 128.872C168.41 132.598 169.179 134.254 173.241 133.83C176.652 133.476 180.151 133.515 183.572 133.83C187.397 134.176 188.561 132.973 188.521 129C188.304 109.303 188.521 89.5954 188.344 69.8883C188.304 66.1618 189.083 64.8506 193.125 64.9492C205.596 65.2449 218.087 65.2449 230.558 64.9492C234.629 64.8506 235.655 65.866 235.645 69.9967C235.487 123.361 235.605 176.725 235.428 230.089C235.418 234.574 236.522 236.221 241.008 235.58C245.001 235.018 250.393 237.364 252.72 234.614C254.682 232.287 253.321 227.102 253.331 223.178C253.351 205.778 253.43 188.368 253.262 170.967C253.232 167.694 254.179 166.768 257.393 166.807C270.367 166.955 283.34 166.985 296.304 166.787C299.765 166.728 300.672 167.724 300.652 171.155C300.514 198.906 300.573 226.658 300.573 254.41C300.573 282.161 300.514 309.913 300.652 337.665Z" fill="#F68720"/>
<path d="M450.436 202.442C450.436 166.304 450.695 130.166 450.241 94.028C450.144 85.2447 452.057 81.4202 461.719 81.9712C478.904 82.9759 501.374 76.3641 511.944 84.9206C523.034 93.8983 514.474 117.266 515.414 134.315C515.9 142.903 516.387 151.687 515.284 160.178C513.403 174.471 519.759 177.291 532.599 176.61C541.807 176.124 543.007 172.462 542.877 164.845C542.553 141.121 543.137 117.364 542.553 93.639C542.326 84.5316 544.92 81.4526 554.193 81.9388C568.168 82.6842 582.24 82.4574 596.28 82.0036C604.062 81.7443 607.726 83.2028 607.661 92.4074C607.304 165.753 607.337 239.131 607.628 312.509C607.628 320.352 605.261 322.718 597.544 322.459C582.467 321.94 567.325 321.843 552.215 322.459C543.915 322.815 542.488 319.38 542.618 312.12C542.974 287.844 542.002 263.536 543.072 239.325C543.623 227.139 537.106 228.176 529.259 228.241C521.574 228.306 514.7 227.009 515.219 239.228C516.224 262.92 515.187 286.677 515.673 310.402C515.835 319.153 513.793 323.01 504.13 322.459C486.978 321.454 464.605 328.033 453.97 319.542C442.881 310.661 451.052 287.358 450.598 270.407C449.982 247.752 450.436 225.097 450.436 202.442Z" fill="#F58720"/>
<path d="M1729.15 159.659C1728.05 145.366 1718.39 138.041 1703.99 137.393C1683.98 136.485 1663.36 133.115 1648.03 155.802C1648.03 143.454 1648.12 135.383 1647.99 127.313C1647.73 112.858 1652.82 93.4439 1645.5 85.244C1636.97 75.6828 1617.12 83.5262 1602.31 82.0029C1592.29 80.9982 1589.63 84.5309 1589.69 94.5458C1590.15 166.238 1590.12 237.963 1589.73 309.656C1589.69 319.087 1591.35 323.528 1601.95 322.49C1612.1 321.518 1622.51 321.486 1632.66 322.49C1644.04 323.625 1650.72 320.87 1649.16 306.285C1656.39 320.935 1667.9 323.333 1681 322.685C1688.52 322.328 1696.11 322.166 1703.63 322.328C1718.06 322.685 1726.85 314.582 1728.15 301.65C1732.91 254.395 1732.85 206.979 1729.15 159.659ZM1672.41 265.026C1671.69 271.541 1669.13 277.796 1660.35 277.342C1651.98 276.889 1648.97 270.795 1648.48 264.346C1647.64 252.548 1648.25 240.621 1648.25 228.759H1648.06C1648.06 217.966 1647.73 207.173 1648.15 196.38C1648.48 188.569 1650.55 180.694 1660.09 179.98C1669.36 179.267 1672.08 187.111 1672.64 193.982C1674.48 217.642 1674.9 241.399 1672.41 265.026Z" fill="#F68720"/>
<path d="M1090.65 125.888C1090.56 111.595 1097.2 91.9537 1087.6 84.402C1078.49 77.2392 1059.69 83.0083 1045.26 81.9388C1034.33 81.0961 1032.9 86.1846 1033.2 95.292C1033.72 113.863 1033.36 132.499 1033.36 152.627C1015.82 137.88 992.666 132.532 971.688 138.009C960.372 140.991 951.812 148.478 951.714 160.47C951.293 205.748 951.423 251.058 952.493 296.336C952.687 305.411 955.411 315.361 966.37 320.028C983.588 327.353 1017.76 322.491 1033.72 307.42C1031.09 320.741 1036.37 323.237 1045.84 322.459C1054.95 321.681 1064.26 321.454 1073.31 322.491C1086.79 324.014 1091.53 320.579 1091.27 305.508C1090.2 245.678 1091.04 185.783 1090.65 125.888ZM1032.42 265.805C1032 272.384 1028.95 277.181 1021.56 277.311C1013.55 277.408 1009.69 272.611 1009.46 265.254C1009.07 252.905 1009.36 240.524 1009.36 228.144H1009.24C1009.24 216.832 1009.07 205.553 1009.3 194.274C1009.43 186.496 1012.57 179.949 1021.23 180.078C1028.79 180.176 1032.19 185.912 1032.55 193.237C1033.81 217.416 1034.01 241.626 1032.42 265.805Z" fill="#F68720"/>
<path d="M1320.64 155.9C1339.77 132.435 1362.11 135.935 1383.83 139.662C1398.13 142.125 1404.23 153.534 1404.36 166.952C1404.88 216.022 1404.62 265.092 1404.91 314.129C1404.94 320.514 1402.57 321.908 1396.51 322.459C1346.74 326.996 1346.74 327.126 1346.74 277.926C1346.74 252.063 1346.74 226.166 1346.67 200.303C1346.64 190.806 1345.83 180.111 1333.57 180.24C1321.42 180.37 1320.7 191.098 1320.7 200.594C1320.64 237.251 1320.41 273.94 1320.83 310.596C1320.93 319.347 1319.08 323.139 1309.48 322.491C1294.5 321.454 1274.92 327.255 1265.71 319.769C1255.98 311.893 1262.82 291.539 1262.73 276.662C1262.37 216.281 1262.82 155.9 1262.34 95.5188C1262.27 85.1474 1264.74 81.096 1275.63 81.9711C1290.03 83.1379 1309.03 77.4985 1317.72 84.7585C1326.9 92.4074 1319.89 112.048 1320.57 126.406C1320.96 134.93 1320.64 143.487 1320.64 155.9Z" fill="#F68720"/>
<path d="M1176.41 277.634C1184.29 266.938 1187.86 255.465 1187.96 242.695C1188.18 212.488 1189.06 182.249 1188.67 152.042C1188.51 141.185 1190.75 136.032 1202.68 137.522C1216.91 139.273 1236.14 131.364 1244.28 140.893C1251.28 149.093 1246.35 167.632 1246.35 181.633C1246.32 213.882 1247.91 246.325 1236.2 277.375C1231.99 288.589 1227 300.095 1218.31 307.646C1205.24 318.958 1203.65 332.214 1203.98 347.868C1204.69 381.121 1204.2 381.154 1170.77 381.154C1148.92 381.154 1148.04 381.121 1149.15 359.017C1150.25 337.464 1147.27 319.217 1131.15 302.136C1112.41 282.301 1108.03 255.238 1107.09 228.532C1106.15 202.117 1106.93 175.637 1106.22 149.223C1105.99 140.213 1108.42 136.583 1117.79 137.522C1132.64 139.046 1151.9 131.235 1161.24 140.699C1169.8 149.385 1163.32 168.442 1163.74 182.93C1164.32 203.413 1164.61 223.929 1164.97 244.445C1165.2 256.599 1168.76 267.554 1176.48 277.666L1176.41 277.634Z" fill="#F68720"/>
<path d="M769.88 179.398C769.847 166.012 774.192 148.543 767.448 140.375C760.315 131.689 742.157 138.819 728.863 137.555C718.001 136.551 709.279 137.717 712.456 154.668C693.618 136.551 689.338 135.254 660.967 137.134C638.724 138.625 630.456 147.279 630.358 169.836C630.196 207.595 630.456 245.386 630.196 283.177C630.164 291.409 631.785 299.22 633.99 306.999C636.227 314.907 641.901 321.292 649.651 321.389C670.791 321.616 693.813 330.237 712.748 306.545C710.479 320.06 714.921 323.301 724.778 322.491C735.478 321.583 746.437 321.454 757.137 322.491C768.323 323.593 770.269 318.99 770.172 308.911C769.653 265.74 770.042 222.569 769.88 179.398ZM711.613 265.254C711.192 272.643 707.755 277.732 699.616 277.31C691.575 276.857 688.592 271.379 688.463 264.184C688.268 252.354 688.398 240.492 688.398 228.662H688.463C688.463 216.832 688.268 205.002 688.527 193.172C688.657 185.912 692.159 180.208 699.811 180.046C707.496 179.884 711.159 185.394 711.613 192.686C713.073 216.864 713.008 241.075 711.613 265.254Z" fill="#F68720"/>
<path d="M846.757 155.608C865.628 137.328 893.87 132.24 914.135 140.602C927.04 145.95 931.19 156.613 931.287 169.091C931.611 217.123 931.384 265.189 931.741 313.254C931.773 320.319 929.666 322.718 922.565 322.458C909.628 322.005 896.593 321.745 883.688 322.523C874.383 323.074 873.313 318.861 873.377 311.115C873.702 276.014 873.539 240.945 873.475 205.845C873.475 200.983 873.864 195.959 872.729 191.357C871.302 185.523 868.157 180.273 860.959 179.884C853.534 179.462 850.291 184.713 848.605 190.514C847.308 195.052 847.47 200.108 847.438 204.905C847.341 240.005 846.952 275.106 847.633 310.175C847.827 320.416 844.844 323.528 834.987 322.458C820.169 320.87 800.261 328.876 791.733 319.152C784.405 310.823 789.366 291.474 789.334 276.986C789.204 234.885 789.69 192.751 789.009 150.649C788.847 139.727 792.252 136.615 802.595 137.49C812.258 138.333 822.082 138.365 831.745 137.49C843.288 136.421 850.324 138.949 846.692 155.64L846.757 155.608Z" fill="#F68720"/>
<path d="M1566.87 213.429C1566.87 234.463 1567.22 255.498 1566.77 276.533C1566.12 305.832 1550.85 321.227 1521.57 322.102C1504.87 322.621 1488.11 322.523 1471.38 322.134C1441.84 321.421 1425.98 307.29 1425.14 277.505C1423.91 233.848 1424.85 190.126 1424.49 146.436C1424.43 139.079 1427.25 136.745 1433.96 137.588C1434.48 137.653 1435.03 137.588 1435.58 137.588C1450.63 137.847 1470.11 132.467 1479.48 139.889C1489.37 147.732 1482.18 168.086 1482.56 182.963C1483.15 206.137 1482.56 229.343 1482.79 252.549C1482.89 263.439 1479.91 278.607 1496.25 278.412C1513.11 278.218 1508.7 262.499 1508.83 252.03C1509.25 218.064 1509.35 184.065 1508.76 150.066C1508.6 140.213 1511 136.551 1521.25 137.393C1532.5 138.301 1543.98 138.431 1555.2 137.393C1566.06 136.356 1567.45 141.153 1567.19 150.325C1566.61 171.36 1567 192.394 1567 213.429H1566.87Z" fill="#F68720"/>
</svg>
