<svg width="36" height="33" viewBox="0 0 36 33" fill="none" xmlns="http://www.w3.org/2000/svg">
<path d="M26.6798 4.95497C26.1228 5.53433 25.8191 6.3109 25.8355 7.11384C25.8697 8.78588 27.2549 10.1137 28.9294 10.0795C29.7335 10.0631 30.4981 9.72844 31.0551 9.14908L35.0855 4.95681C35.8824 6.53914 36.1685 8.32925 35.9043 10.0807C35.6401 11.8321 34.8387 13.4586 33.6103 14.7363C32.3819 16.014 30.7871 16.88 29.0454 17.2151C27.3036 17.5502 25.5007 17.3379 23.8849 16.6073C21.7516 15.0194 20.8051 14.0995 19.5095 12.4132C18.7126 10.8309 18.4265 9.04079 18.6907 7.28939C18.9549 5.53798 19.7564 3.91143 20.9847 2.63373C22.2131 1.35602 23.808 0.490002 25.5497 0.154922C27.2914 -0.180159 29.0943 0.0321819 30.7102 0.762704L26.6798 4.95497Z" fill="#F8FAFC"/>
<path d="M11.6158 20.7867L16.0138 24.9568L9.48457 31.8829C8.92759 32.4623 8.16293 32.797 7.35881 32.8134C6.5547 32.8298 5.77699 32.5265 5.19678 31.9703C4.61658 31.4142 4.2814 30.6506 4.26498 29.8477C4.24856 29.0447 4.55225 28.2682 5.10923 27.6888L11.6158 20.7867Z" fill="#F8FAFC"/>
<path d="M17.1656 13.3033L31.4581 26.8551C32.8708 28.1947 32.946 30.4183 31.6269 31.8499C30.2781 33.3138 27.99 33.391 26.5454 32.0212L12.2529 18.4695C11.0889 17.3658 10.8329 15.662 11.5166 14.2955L4.88164 7.89936L3.65128 9.12914L0 4.21061L2.25829 1.71645L7.53806 5.2442L6.31768 6.46401L12.9038 12.8131C14.2384 12.0306 15.9841 12.1831 17.1656 13.3033Z" fill="#F8FAFC"/>
</svg>
