<svg width="33" height="30" viewBox="0 0 33 30" fill="none" xmlns="http://www.w3.org/2000/svg">
<path d="M16.4016 10.2338C16.5713 10.1724 16.755 10.1598 16.9316 10.1976C17.1082 10.2354 17.2706 10.3219 17.4002 10.4474L22.1082 15.0395V14.3703C22.1082 12.6616 23.542 11.2661 25.304 11.2661C26.1396 11.2566 26.9451 11.5779 27.544 12.1596C28.1429 12.7414 28.4865 13.5362 28.4997 14.3703V15.2246C28.4997 15.9366 28.25 16.5915 27.8363 17.1184H28.3428C29.4163 17.1069 30.4508 17.5197 31.2205 18.2666C31.9903 19.0135 32.4328 20.034 32.4516 21.1053V29.186C32.4516 29.5206 32.1662 29.7982 31.8238 29.7982H29.1774C29.1169 29.7972 29.0568 29.7876 28.999 29.7698C28.9389 29.7883 28.8765 29.7979 28.8136 29.7982H21.7944C21.7129 29.7992 21.632 29.7841 21.5563 29.7538C21.4807 29.7236 21.4117 29.6787 21.3534 29.6219C21.2951 29.565 21.2486 29.4973 21.2166 29.4225C21.1845 29.3477 21.1676 29.2673 21.1666 29.186V21.8173L17.172 16.0505C16.8699 15.6117 16.6119 15.1443 16.4016 14.655C16.1947 15.1392 15.9379 15.6019 15.6312 16.0433L11.6365 21.8102V29.186C11.6365 29.5206 11.3512 29.7982 11.0088 29.7982H3.98956C3.92668 29.7979 3.86419 29.7883 3.8041 29.7698C3.74629 29.7876 3.68625 29.7972 3.62576 29.7982H0.979296C0.897796 29.7992 0.816909 29.7841 0.741253 29.7538C0.665598 29.7236 0.596656 29.6787 0.538364 29.6219C0.480073 29.565 0.433573 29.4973 0.401522 29.4225C0.36947 29.3477 0.352494 29.2673 0.351563 29.186L0.351562 21.1053C0.370336 20.034 0.812872 19.0135 1.58262 18.2666C2.35237 17.5197 3.38685 17.1069 4.46036 17.1184H4.9597C4.5343 16.5812 4.30306 15.9164 4.30343 15.2317V14.3703C4.30343 12.6616 5.73723 11.2661 7.49916 11.2661C8.33484 11.2566 9.14027 11.5779 9.73919 12.1596C10.3381 12.7414 10.6817 13.5362 10.6949 14.3703V15.0395L15.4029 10.4474C15.674 10.1982 16.0592 10.1128 16.4016 10.2338ZM17.0293 11.8215C17.0721 13.0887 17.4787 14.3133 18.2134 15.367L22.3151 21.2904C22.3864 21.3901 22.4221 21.504 22.4221 21.6322V28.5737H28.1858V24.067C28.1858 23.7253 28.4712 23.4548 28.8136 23.4548C29.1631 23.4548 29.4413 23.7253 29.4413 24.067V28.5737H31.1961V21.1053C31.1961 19.5817 29.9121 18.3287 28.3428 18.3287H23.9914C23.825 18.3328 23.6636 18.2714 23.542 18.1578L17.0293 11.8215ZM15.7738 11.8215L9.2611 18.1578L9.1969 18.2077C9.08796 18.2899 8.95538 18.3348 8.81883 18.3358H4.46036C2.89103 18.3358 1.60703 19.5817 1.60703 21.1124V28.5666H3.36183V21.625C3.36183 21.2833 3.64716 21.0128 3.98956 21.0128C4.33196 21.0128 4.6173 21.2833 4.6173 21.625V28.5666H10.381V22.5007C10.3882 22.2729 10.4238 21.383 10.488 21.2904L14.5897 15.367C15.3188 14.3239 15.73 13.0926 15.7738 11.8215ZM7.49916 12.4836C6.99146 12.4779 6.50218 12.6732 6.13851 13.0269C5.77484 13.3805 5.56641 13.8636 5.5589 14.3703V15.2246C5.56169 15.4761 5.6141 15.7246 5.71312 15.9559C5.81214 16.1872 5.95584 16.3967 6.13602 16.5726C6.31619 16.7485 6.52931 16.8872 6.7632 16.9808C6.99709 17.0745 7.24717 17.1212 7.49916 17.1184C8.00631 17.1222 8.49451 16.9263 8.85778 16.573C9.22104 16.2198 9.43005 15.7378 9.43943 15.2317V14.3703C9.43664 14.1188 9.38423 13.8703 9.28521 13.639C9.18618 13.4077 9.04248 13.1981 8.86231 13.0223C8.68214 12.8464 8.46902 12.7077 8.23513 12.614C8.00124 12.5204 7.75116 12.4736 7.49916 12.4765V12.4836ZM25.304 12.4836C24.7963 12.4779 24.307 12.6732 23.9433 13.0269C23.5796 13.3805 23.3712 13.8636 23.3637 14.3703V15.2246C23.3665 15.4761 23.4189 15.7246 23.5179 15.9559C23.6169 16.1872 23.7606 16.3967 23.9408 16.5726C24.121 16.7485 24.3341 16.8872 24.568 16.9808C24.8019 17.0745 25.052 17.1212 25.304 17.1184C25.8111 17.1222 26.2993 16.9263 26.6626 16.573C27.0258 16.2198 27.2349 15.7378 27.2442 15.2317V14.3703C27.2414 14.1188 27.189 13.8703 27.09 13.639C26.991 13.4077 26.8473 13.1981 26.6671 13.0223C26.4869 12.8464 26.2738 12.7077 26.0399 12.614C25.806 12.5204 25.556 12.4736 25.304 12.4765V12.4836ZM22.4506 4.46701C22.5503 4.56271 22.6117 4.69125 22.6235 4.82875C22.6353 4.96624 22.5967 5.10334 22.5148 5.21456L22.4578 5.27864L20.9883 6.74526C20.9352 6.79907 20.8719 6.84181 20.8021 6.87098C20.7323 6.90015 20.6574 6.91517 20.5817 6.91517C20.506 6.91517 20.4311 6.90015 20.3613 6.87098C20.2915 6.84181 20.2282 6.79907 20.1751 6.74526C20.0746 6.64827 20.0133 6.51785 20.0028 6.37875C19.9923 6.23965 20.0333 6.10153 20.118 5.99059L20.1751 5.92651L21.6374 4.46701C21.6906 4.41211 21.7544 4.36845 21.8248 4.33863C21.8953 4.30881 21.9711 4.29345 22.0476 4.29345C22.1241 4.29345 22.1999 4.30881 22.2703 4.33863C22.3408 4.36845 22.4045 4.41211 22.4578 4.46701H22.4506ZM11.7792 4.38158L11.8505 4.4243L13.2772 5.49222C13.5126 5.67021 13.5126 5.95499 13.2772 6.13298C13.165 6.20994 13.0338 6.25463 12.898 6.26217C12.7621 6.2697 12.6267 6.23979 12.5068 6.1757L12.4354 6.12586L11.0088 5.05793C10.7734 4.88706 10.7734 4.60228 11.0088 4.4243C11.2228 4.26767 11.5438 4.25343 11.7792 4.38158ZM16.7297 0.373291C17.065 0.373291 17.3432 0.629594 17.3788 0.957091V4.94402C17.3788 5.30712 17.0935 5.60613 16.7297 5.60613C16.5686 5.60534 16.4133 5.5454 16.2936 5.43774C16.1739 5.33007 16.0981 5.18221 16.0806 5.02233V1.03541C16.0806 0.665191 16.3659 0.373291 16.7226 0.373291H16.7297Z" fill="#0049AD"/>
</svg>
