<svg width="33" height="33" viewBox="0 0 33 33" fill="none" xmlns="http://www.w3.org/2000/svg">
<g clip-path="url(#clip0_13070_5092)">
<path d="M30.751 3.36237C32.3917 5.00303 32.3917 7.64237 30.751 9.28303C30.7045 9.33049 30.649 9.36818 30.5878 9.39392C30.5265 9.41965 30.4608 9.43291 30.3943 9.43291C30.3279 9.43291 30.2622 9.41965 30.2009 9.39392C30.1397 9.36818 30.0842 9.33049 30.0377 9.28303L27.8977 7.14303L27.0417 8.07037C29.467 10.567 30.965 11.9224 30.965 17.7004C30.965 23.407 27.6837 27.473 24.2597 29.5417L24.0457 29.6844L25.615 31.2537C25.6863 31.3235 25.7351 31.4132 25.7549 31.511C25.7748 31.6088 25.7649 31.7103 25.7265 31.8025C25.6881 31.8946 25.623 31.9731 25.5396 32.0279C25.4561 32.0827 25.3582 32.1112 25.2583 32.1097L24.973 32.0384L24.9017 31.967L23.1183 30.1837C21.2672 31.0882 19.2382 31.5703 17.1781 31.5949C15.1179 31.6196 13.078 31.1863 11.2057 30.3264L10.849 30.1837L9.06568 31.967C9.01884 32.0139 8.96324 32.051 8.90204 32.0764C8.84085 32.1017 8.77526 32.1148 8.70902 32.1148C8.64278 32.1148 8.57719 32.1017 8.51599 32.0764C8.45479 32.051 8.39919 32.0139 8.35235 31.967C8.30551 31.9202 8.26836 31.8646 8.24301 31.8034C8.21766 31.7422 8.20461 31.6766 8.20461 31.6104C8.20461 31.5441 8.21766 31.4785 8.24301 31.4173C8.26836 31.3561 8.30551 31.3005 8.35235 31.2537L9.92168 29.6844C8.13232 28.6343 6.60052 27.1972 5.43848 25.4785C4.27644 23.7597 3.5136 21.8028 3.20583 19.751C2.89807 17.6992 3.05317 15.6046 3.65979 13.6205C4.2664 11.6365 5.30916 9.81323 6.71168 8.28437L6.92568 8.07037L6.06968 7.14303L3.92968 9.28303C3.88319 9.33049 3.8277 9.36818 3.76645 9.39392C3.70521 9.41965 3.63945 9.43291 3.57302 9.43291C3.50659 9.43291 3.44082 9.41965 3.37958 9.39392C3.31833 9.36818 3.26284 9.33049 3.21635 9.28303C2.42176 8.49791 1.97161 7.42928 1.96492 6.31225C1.95823 5.19523 2.39555 4.12129 3.18068 3.3267C3.96581 2.53211 5.03443 2.08196 6.15146 2.07527C7.26849 2.06858 8.34243 2.50591 9.13702 3.29103C9.18941 3.33258 9.23292 3.38422 9.26497 3.44289C9.29703 3.50156 9.31698 3.56608 9.32363 3.63261C9.33028 3.69913 9.3235 3.76632 9.3037 3.83018C9.2839 3.89404 9.25148 3.95328 9.20835 4.00437L6.71168 6.4297L7.71035 7.35704C10.2209 5.10497 13.4641 3.84171 16.8364 3.80234C20.2088 3.76298 23.4806 4.95019 26.043 7.14303L26.257 7.35704L27.1843 6.4297L24.8303 4.0757C24.7829 4.02921 24.7452 3.97372 24.7195 3.91247C24.6937 3.85123 24.6805 3.78547 24.6805 3.71903C24.6805 3.6526 24.6937 3.58684 24.7195 3.5256C24.7452 3.46435 24.7829 3.40886 24.8303 3.36237C26.471 1.7217 29.1103 1.7217 30.751 3.36237ZM16.9837 5.28837C9.99302 5.28837 4.42902 10.7097 4.42902 17.7004C4.428 19.3295 4.75527 20.9422 5.39128 22.4421C6.02729 23.942 6.959 25.2983 8.1308 26.4302C9.30259 27.562 10.6904 28.4461 12.2115 29.0298C13.7325 29.6134 15.3555 29.8845 16.9837 29.827C18.6177 29.8944 20.2484 29.6305 21.7778 29.0513C23.3072 28.4721 24.7037 27.5895 25.8832 26.4567C27.0627 25.3239 28.0008 23.9641 28.6412 22.4593C29.2817 20.9546 29.6111 19.3358 29.6097 17.7004C29.6097 10.6384 23.9743 5.28837 16.9837 5.28837ZM26.1143 3.4337L25.9717 3.50503L30.6083 8.1417C31.0098 7.5095 31.1881 6.76107 31.1147 6.01577C31.0413 5.27046 30.7204 4.5712 30.2033 4.02947C29.6862 3.48774 29.0026 3.13474 28.2615 3.02676C27.5204 2.91879 26.7645 3.06205 26.1143 3.4337ZM3.71568 3.8617C3.18899 4.40245 2.8602 5.10512 2.78253 5.85597C2.70486 6.60683 2.88284 7.36192 3.28768 7.99903L3.35902 8.1417L7.99568 3.50503C7.35333 3.05415 6.57316 2.84289 5.79107 2.90807C5.00899 2.97324 4.27454 3.31071 3.71568 3.8617ZM17.7683 16.8444H16.1277C15.2003 16.8444 14.487 16.131 14.487 15.1324C14.487 14.205 15.2003 13.4917 16.1277 13.4917H19.3377C19.7657 13.4917 20.1223 13.135 20.1223 12.707C20.1223 12.279 19.7657 11.9224 19.409 11.9224H17.697V10.2104C17.697 9.78237 17.3403 9.49704 16.9837 9.49704C16.8842 9.48703 16.7837 9.49806 16.6888 9.52941C16.5938 9.56075 16.5065 9.6117 16.4325 9.67897C16.3585 9.74623 16.2995 9.8283 16.2593 9.91985C16.219 10.0114 16.1985 10.1104 16.199 10.2104V11.9224C14.4157 11.9224 12.989 13.349 12.989 15.1324C12.989 16.9157 14.4157 18.4137 16.1277 18.4137H17.7683C18.6957 18.4137 19.409 19.127 19.409 20.1257C19.409 21.053 18.6957 21.7664 17.7683 21.7664H14.5583C14.4526 21.7551 14.3456 21.7677 14.2453 21.8032C14.145 21.8386 14.0539 21.8961 13.9786 21.9713C13.9034 22.0465 13.8459 22.1376 13.8105 22.238C13.775 22.3383 13.7624 22.4452 13.7737 22.551C13.7737 22.979 14.1303 23.3357 14.487 23.3357H16.2703V25.0477C16.2703 25.4757 16.627 25.761 16.9837 25.761C17.4117 25.761 17.7683 25.4757 17.7683 25.0477V23.3357C19.5517 23.3357 20.9783 21.909 20.9783 20.1257C20.9783 18.3424 19.5517 16.8444 17.8397 16.8444H17.7683Z" fill="#0049AD"/>
</g>
<defs>
<clipPath id="clip0_13070_5092">
<rect width="32.1" height="32.1" fill="white" transform="translate(0.574219 0.723267)"/>
</clipPath>
</defs>
</svg>
