<svg width="40" height="40" viewBox="0 0 40 40" fill="none" xmlns="http://www.w3.org/2000/svg">
<path d="M36.2953 9.97837H19.4757C18.9051 9.41933 18.1822 9.04118 17.3976 8.89134C16.613 8.74151 15.8016 8.82665 15.0652 9.1361C14.3288 9.44555 13.7001 9.96552 13.258 10.6308C12.8159 11.2961 12.5801 12.0771 12.5801 12.8759C12.5801 13.6747 12.8159 14.4557 13.258 15.1211C13.7001 15.7864 14.3288 16.3063 15.0652 16.6158C15.8016 16.9252 16.613 17.0104 17.3976 16.8605C18.1822 16.7107 18.9051 16.3325 19.4757 15.7735H36.2953C36.449 15.7735 36.5964 15.7125 36.7051 15.6038C36.8138 15.4951 36.8748 15.3477 36.8748 15.194V10.5579C36.8748 10.4042 36.8138 10.2568 36.7051 10.1481C36.5964 10.0394 36.449 9.97837 36.2953 9.97837Z" fill="#F8FAFC"/>
<path d="M21.6604 0.729492H10.2284C9.47045 0.729492 8.74351 1.0306 8.20753 1.56658C7.67155 2.10256 7.37044 2.8295 7.37044 3.58749L6.82422 36.4132C6.82422 37.1712 7.12533 37.8981 7.66131 38.4341C8.19728 38.9701 8.92422 39.2712 9.68221 39.2712H21.1142C21.8722 39.2712 22.5991 38.9701 23.1351 38.4341C23.6711 37.8981 23.9722 37.1712 23.9722 36.4132L24.5184 17.8775H20.698C19.3799 18.9422 17.6949 19.4438 16.0091 19.273C14.3234 19.1023 12.7731 18.2732 11.6953 16.9658C10.9883 16.1089 10.5154 15.0834 10.3226 13.9893C10.1298 12.8953 10.2237 11.7699 10.5952 10.7229C10.9668 9.67598 11.6032 8.74312 12.4425 8.01527C13.2817 7.28743 14.2953 6.78943 15.3843 6.56981C15.8042 6.48773 16.231 6.4461 16.6589 6.44549C18.1294 6.44238 19.5559 6.94716 20.6972 7.87449H24.5184V3.58749C24.5184 2.8295 24.2173 2.10256 23.6813 1.56658C23.1453 1.0306 22.4184 0.729492 21.6604 0.729492ZM15.3982 24.2667C16.0263 24.2637 16.6377 24.4688 17.1371 24.8497C17.6365 25.2307 17.9958 25.7662 18.159 26.3728C18.3221 26.9794 18.28 27.6229 18.039 28.203C17.7981 28.7831 17.372 29.2672 16.8272 29.5797V32.8407C16.8272 33.0302 16.7519 33.2119 16.6179 33.3459C16.4839 33.4799 16.3022 33.5552 16.1127 33.5552H14.6837C14.4942 33.5552 14.3125 33.4799 14.1785 33.3459C14.0445 33.2119 13.9692 33.0302 13.9692 32.8407V29.5797C13.4244 29.2672 12.9982 28.7831 12.7573 28.203C12.5164 27.6229 12.4743 26.9794 12.6374 26.3728C12.8006 25.7662 13.1598 25.2307 13.6592 24.8497C14.1586 24.4688 14.7701 24.2637 15.3982 24.2667Z" fill="#F8FAFC"/>
</svg>
