<svg width="30" height="36" viewBox="0 0 30 36" fill="none" xmlns="http://www.w3.org/2000/svg">
<path d="M28.3531 5.36161L24.3739 1.5514C22.9098 0.149533 20.526 0.149533 19.0619 1.5514L13.75 6.63767L17.7293 10.4479L21.7085 6.63767L28.3531 13C29.4079 11.9855 30 10.6123 30 9.1808C30 7.74932 29.4079 6.3761 28.3531 5.36161Z" fill="#F8FAFC"/>
<path d="M3.26937 20.9822C4.29521 22.0059 5.94697 22.0059 6.95541 20.9822L11.25 16.6961L7.56396 13L3.26937 17.2861C2.24354 18.3099 2.24354 19.9584 3.26937 20.9822Z" fill="#F8FAFC"/>
<path d="M20.5402 10.6679L25.7142 15.6822C25.8841 15.8462 26.0188 16.041 26.1108 16.2553C26.2027 16.4696 26.25 16.6993 26.25 16.9313C26.25 17.1633 26.2027 17.393 26.1108 17.6074C26.0188 17.8217 25.8841 18.0164 25.7142 18.1805C25.5443 18.3445 25.3427 18.4746 25.1207 18.5634C24.8988 18.6522 24.6609 18.6979 24.4207 18.6979C24.1805 18.6979 23.9426 18.6522 23.7207 18.5634C23.4987 18.4746 23.2971 18.3445 23.1272 18.1805L6.26572 34.4635C4.8346 35.8455 2.50445 35.8455 1.07334 34.4635C-0.357779 33.0815 -0.357779 30.8313 1.07334 29.4492L14.0451 16.9225L8.21057 11.2881C7.95317 11.0425 7.7488 10.7501 7.60932 10.4277C7.46984 10.1053 7.39802 9.75936 7.39802 9.40996C7.39802 9.06056 7.46984 8.71463 7.60932 8.39223C7.7488 8.06983 7.95317 7.77738 8.21057 7.53183C9.27473 6.48646 11.0178 6.48646 12.1003 7.54955L17.9348 13.1839L20.5402 10.6679Z" fill="#F8FAFC"/>
</svg>
