<svg width="40" height="22" viewBox="0 0 40 22" fill="none" xmlns="http://www.w3.org/2000/svg">
<path d="M13.9121 5.90683L7.61234 5.90683L7.26268 6.57998L13.5267 6.57998L10.789 11.3623H4.77855L4.42889 12.0355H10.4037L7.88232 16.4399H2.11245L3.66418 13.4568V12.0355H3.68271V11.3623H3.66418V6.57998H3.68271V5.90683H3.66418V5.5489H3.68271V4.21953H8.46921L10.2354 0.824219H16.8217L13.9121 5.90683Z" fill="#F8FAFC"/>
<path d="M17.5974 0.824219L14.6877 5.90683H20.1578L23.0674 0.824219H17.5974Z" fill="#F8FAFC"/>
<path d="M23.843 0.824219L20.9334 5.90683L26.8227 5.90683L28.1237 3.36828L36.9626 21.1767H40.3534L29.7665 0.824219H23.843Z" fill="#F8FAFC"/>
<path d="M26.4777 6.57998L20.5481 6.57998L17.8103 11.3623H24.0268L26.4777 6.57998Z" fill="#F8FAFC"/>
<path d="M23.6818 12.0355H17.425L14.9036 16.4399H21.4246L23.6818 12.0355Z" fill="#F8FAFC"/>
<path d="M21.0796 17.113H14.5183L12.192 21.1767H18.997L21.0796 17.113Z" fill="#F8FAFC"/>
<path d="M11.4163 21.1767L13.7426 17.113H8.27261L5.94629 21.1767H11.4163Z" fill="#F8FAFC"/>
<path d="M5.17065 21.1767L7.49697 17.113H1.76229L-0.351562 21.1767H5.17065Z" fill="#F8FAFC"/>
<path d="M14.3024 6.57998H19.7724L17.0347 11.3623H11.5647L14.3024 6.57998Z" fill="#F8FAFC"/>
<path d="M11.1793 12.0355L8.65796 16.4399H14.128L16.6493 12.0355H11.1793Z" fill="#F8FAFC"/>
<path d="M24.8881 13.472H27.8559V16.4398H24.8881V13.472Z" fill="#F8FAFC"/>
<path d="M24.8881 17.1819H27.8559V20.1497H24.8881V17.1819Z" fill="#F8FAFC"/>
<path d="M31.5655 13.472H28.5977V16.4398H31.5655V13.472Z" fill="#F8FAFC"/>
<path d="M28.5977 17.1819H31.5655V20.1497H28.5977V17.1819Z" fill="#F8FAFC"/>
</svg>
