<svg width="33" height="33" viewBox="0 0 33 33" fill="none" xmlns="http://www.w3.org/2000/svg">
<g clip-path="url(#clip0_13070_5075)">
<path d="M26.741 4.15259C27.811 4.15259 28.5957 4.93725 28.667 5.93592V15.5659H29.951C30.3077 15.5659 30.5217 15.8513 30.593 16.1366C30.593 16.8499 31.1637 17.4206 31.8057 17.4206C32.1623 17.4206 32.3763 17.6346 32.4477 17.9199V22.2713C32.4477 23.4839 32.1623 24.6966 31.663 25.7666C30.2363 28.6199 28.0963 29.1906 27.2403 29.4759L26.8123 29.5473C26.099 29.5473 22.6037 28.1206 21.5337 24.6253L21.4623 24.4113H2.20232C1.73888 24.3969 1.29617 24.2159 0.955466 23.9014C0.614765 23.5869 0.398953 23.1601 0.347656 22.6993L0.347656 6.07859C0.347656 5.07992 1.06099 4.15259 2.13099 4.15259H26.741ZM29.3803 16.8499H24.2443C24.1321 17.2672 23.9163 17.6494 23.617 17.9611C23.3178 18.2729 22.9447 18.5041 22.5323 18.6333H22.461V22.3426C22.461 24.3399 23.317 25.9806 24.9577 27.2646C25.5231 27.6874 26.1481 28.024 26.8123 28.2633H26.955C27.7401 28.027 28.465 27.6244 29.0805 27.0827C29.696 26.5411 30.1875 25.8733 30.5217 25.1246C31.021 24.4113 31.235 23.4839 31.235 22.5566V18.5619C30.8147 18.4559 30.4292 18.2423 30.1166 17.9421C29.8039 17.642 29.5747 17.2655 29.4517 16.8499H29.3803ZM28.881 20.4166C29.1663 20.6306 29.1663 20.9873 28.9523 21.2726V21.3439L26.2417 24.0546C26.1182 24.1472 25.968 24.1973 25.8137 24.1973C25.6593 24.1973 25.5091 24.1472 25.3857 24.0546H25.3143L23.8877 22.6279C23.8358 22.4983 23.8231 22.3563 23.8511 22.2195C23.8792 22.0827 23.9468 21.9572 24.0455 21.8584C24.1442 21.7597 24.2698 21.6921 24.4066 21.6641C24.5433 21.636 24.6854 21.6487 24.815 21.7006H24.8863L25.7423 22.6279L27.9537 20.4166C28.0829 20.3061 28.2473 20.2453 28.4173 20.2453C28.5873 20.2453 28.7518 20.3061 28.881 20.4166ZM27.4543 12.9979H1.63166V22.5566C1.63166 22.8419 1.84566 23.1273 2.13099 23.1273H21.177V18.0626C21.177 17.7059 21.4623 17.4919 21.819 17.4919C22.5323 17.4919 23.0317 16.9213 23.0317 16.2079C23.0317 15.8513 23.317 15.5659 23.6023 15.4946H27.4543V12.9979ZM7.69499 18.8473C8.05166 18.8473 8.33699 19.1326 8.40832 19.4893C8.40832 19.8459 8.12299 20.2026 7.69499 20.2026H4.41366C3.98566 20.2026 3.70032 19.9173 3.70032 19.4893C3.70032 19.2039 3.98566 18.9186 4.34232 18.8473H7.69499ZM12.3317 18.8473C12.7597 18.8473 13.045 19.1326 13.045 19.5606C13.045 19.8459 12.7597 20.1313 12.403 20.2026H9.05032C8.86113 20.2026 8.6797 20.1274 8.54592 19.9937C8.41214 19.8599 8.33699 19.6784 8.33699 19.4893C8.33699 19.2039 8.62232 18.9186 9.05032 18.8473H12.3317ZM18.395 18.8473C18.7517 18.8473 19.1083 19.1326 19.1083 19.5606C19.1083 19.8459 18.823 20.1313 18.395 20.2026H15.1137C14.6857 20.2026 14.4003 19.9173 14.4003 19.4893C14.4003 19.2039 14.6857 18.9186 15.0423 18.8473H18.395ZM10.3343 15.5659C10.691 15.5659 10.9763 15.9226 10.9763 16.2793C10.9763 16.6359 10.691 16.9926 10.263 16.9926H4.41366C4.22447 16.9926 4.04303 16.9174 3.90925 16.7837C3.77548 16.6499 3.70032 16.4684 3.70032 16.2793C3.70032 15.9226 4.05699 15.5659 4.41366 15.5659H10.3343ZM27.4543 9.21725H1.63166V11.7853H27.4543V9.14592V9.21725ZM26.741 5.43659H2.27366C1.98832 5.43659 1.70299 5.65059 1.70299 6.00725V7.93325H27.4543V6.07859C27.4543 5.72192 27.169 5.36525 26.741 5.36525V5.43659Z" fill="#0049AD"/>
</g>
<defs>
<clipPath id="clip0_13070_5075">
<rect width="32.1" height="32.1" fill="white" transform="translate(0.347656 0.585815)"/>
</clipPath>
</defs>
</svg>
