<svg width="33" height="33" viewBox="0 0 33 33" fill="none" xmlns="http://www.w3.org/2000/svg">
<g clip-path="url(#clip0_13070_5081)">
<path d="M16.7558 1.8623C22.9618 1.8623 27.9552 6.85564 27.9552 13.0616C30.4518 13.2043 32.4492 15.273 32.4492 17.7696V18.3403C32.4492 20.9796 30.3092 23.1196 27.6698 23.1196H25.7438C25.1018 23.1196 24.6025 22.6203 24.6025 21.9783V14.1316C24.6025 13.561 25.1018 13.0616 25.7438 13.0616H26.7425C26.7425 10.3941 25.6828 7.8358 23.7966 5.94956C21.9103 4.06332 19.352 3.00364 16.6845 3.00364C14.017 3.00364 11.4587 4.06332 9.57242 5.94956C7.68618 7.8358 6.6265 10.3941 6.6265 13.0616H7.6965C8.3385 13.0616 8.83783 13.561 8.83783 14.1316V21.9783C8.83783 22.6203 8.3385 23.1196 7.6965 23.1196H7.4825L9.12317 25.6876C9.70077 26.6038 10.5007 27.3589 11.4486 27.8827C12.3965 28.4065 13.4615 28.6821 14.5445 28.6836H14.9725C15.1087 28.2183 15.3896 27.8085 15.7743 27.5135C16.1591 27.2186 16.6278 27.0537 17.1125 27.043C18.3252 27.043 19.3238 28.0416 19.3238 29.2543C19.3238 30.467 18.3252 31.537 17.1125 31.537C16.6119 31.5471 16.1235 31.3813 15.7325 31.0685C15.3415 30.7557 15.0725 30.3156 14.9725 29.825H14.5445C11.9052 29.825 9.55117 28.541 8.1245 26.2583L6.05583 23.1196H5.84183C3.2025 23.1196 1.0625 20.9796 1.0625 18.269V17.6983C1.0625 15.2016 3.05983 13.133 5.5565 12.9903C5.5565 6.85564 10.5498 1.8623 16.7558 1.8623ZM17.0412 28.1843C16.3992 28.1843 15.8998 28.6836 15.8998 29.2543C15.8998 29.557 16.0201 29.8473 16.2341 30.0614C16.4482 30.2754 16.7385 30.3956 17.0412 30.3956C17.3439 30.3956 17.6342 30.2754 17.8482 30.0614C18.0623 29.8473 18.1825 29.557 18.1825 29.2543C18.1825 28.6836 17.6832 28.1843 17.0412 28.1843ZM7.76783 14.1316H5.84183C5.36142 14.1219 4.884 14.2094 4.43823 14.3888C3.99246 14.5682 3.58753 14.8358 3.24776 15.1756C2.90798 15.5153 2.64037 15.9203 2.46098 16.366C2.28159 16.8118 2.19413 17.2892 2.20383 17.7696V18.3403C2.19434 18.8147 2.27959 19.2861 2.45458 19.7271C2.62957 20.1681 2.89078 20.5698 3.22293 20.9086C3.55507 21.2473 3.95147 21.5165 4.38892 21.7001C4.82636 21.8838 5.29606 21.9784 5.7705 21.9783H7.76783V14.1316ZM27.7412 14.1316H25.7438V21.9783H27.6698C28.1442 21.9878 28.6157 21.9025 29.0567 21.7276C29.4977 21.5526 29.8993 21.2914 30.2381 20.9592C30.5769 20.6271 30.846 20.2307 31.0297 19.7932C31.2134 19.3558 31.3079 18.8861 31.3078 18.4116V17.7696C31.3078 16.8237 30.9321 15.9165 30.2632 15.2476C29.5943 14.5787 28.6871 14.203 27.7412 14.203V14.1316ZM17.0412 5.42897C17.6118 5.42897 18.2538 5.42897 18.8245 5.57164C19.1098 5.7143 19.3952 5.99964 19.2525 6.28497C19.2525 6.49897 18.8958 6.64164 18.5392 6.64164C17.288 6.37822 15.9906 6.43635 14.768 6.8106C13.5455 7.18485 12.4378 7.863 11.5485 8.78164L11.1205 8.9243L10.7638 8.78164C10.7164 8.73515 10.6787 8.67965 10.653 8.61841C10.6272 8.55717 10.614 8.4914 10.614 8.42497C10.614 8.35854 10.6272 8.29278 10.653 8.23153C10.6787 8.17029 10.7164 8.1148 10.7638 8.06831C12.2618 6.3563 14.6158 5.42897 17.0412 5.42897Z" fill="#0049AD"/>
</g>
<defs>
<clipPath id="clip0_13070_5081">
<rect width="32.1" height="32.1" fill="white" transform="translate(0.347656 0.435791)"/>
</clipPath>
</defs>
</svg>
