<svg width="35" height="36" viewBox="0 0 35 36" fill="none" xmlns="http://www.w3.org/2000/svg">
<path d="M33.72 0.958984H30.1944C29.9718 0.958984 29.7686 1.08466 29.6688 1.28377L26.6688 7.28406L23.6688 1.28377C23.5689 1.08466 23.3658 0.958984 23.1431 0.958984H10.2158C9.89104 0.958984 9.62822 1.22208 9.62822 1.54659V16.9291L4.06778 13.3905C3.83595 13.2433 3.53181 13.2755 3.33671 13.4708L0.398686 16.4089C0.178909 16.6289 0.168003 16.9821 0.375158 17.2148L9.62822 27.6247V34.4525C9.62822 34.777 9.89104 35.0401 10.2158 35.0401H16.6795V25.6384C16.6795 25.3139 16.9423 25.0508 17.2671 25.0508C17.5919 25.0508 17.8547 25.3139 17.8547 25.6384V35.0401H33.72C34.0448 35.0401 34.3076 34.777 34.3076 34.4525V1.54659C34.3076 1.22208 34.0448 0.958984 33.72 0.958984ZM17.8547 22.1128C17.8547 22.4373 17.5919 22.7004 17.2671 22.7004C16.9423 22.7004 16.6795 22.4373 16.6795 22.1128V20.9376C16.6795 20.6131 16.9423 20.35 17.2671 20.35C17.5919 20.35 17.8547 20.6131 17.8547 20.9376V22.1128Z" fill="#F8FAFC"/>
</svg>
