<svg width="33" height="33" viewBox="0 0 33 33" fill="none" xmlns="http://www.w3.org/2000/svg">
<g clip-path="url(#clip0_13070_5098)">
<path d="M31.7826 14.3727C32.2901 14.8093 32.6058 15.4277 32.6618 16.0948C32.7178 16.7619 32.5097 17.4243 32.0822 17.9394C26.0688 25.2011 26.4469 24.7517 26.3969 24.7945C25.4053 25.7764 24.082 26.3515 22.6876 26.4067H14.1276C13.6853 26.4067 13.2716 26.5636 12.9292 26.8489L12.8222 26.9417L12.1659 27.5837C12.3799 28.2114 12.2515 28.9247 11.8093 29.4383L11.7237 29.5453L8.67774 32.5627C8.57153 32.6707 8.42949 32.7361 8.27839 32.7466C8.12729 32.7571 7.97756 32.712 7.85741 32.6198L7.79321 32.5627L0.759744 25.4009C0.653906 25.292 0.590095 25.1491 0.579647 24.9976C0.569199 24.8461 0.612791 24.6958 0.702678 24.5734L0.759744 24.5092L3.74148 21.4918C3.95546 21.2721 4.2206 21.1088 4.51315 21.0167C4.8057 20.9246 5.11653 20.9064 5.41781 20.9639C6.83021 18.3246 9.46954 16.9193 12.4869 16.9193C13.4785 16.9193 14.4415 17.0977 15.3545 17.4401L15.6256 17.5542H22.6163C23.3367 17.5542 24.0073 17.8681 24.4709 18.3817L24.5708 18.4958L28.2659 14.6581C28.6947 14.1543 29.3058 13.8413 29.9652 13.7878C30.6246 13.7343 31.2782 13.9447 31.7826 14.3727ZM4.69021 22.3335L4.62601 22.3906L2.08654 24.9586L8.24261 31.2359L10.8391 28.6537C10.9546 28.534 11.0192 28.3742 11.0192 28.2078C11.0192 28.0415 10.9546 27.8817 10.8391 27.762C5.20381 22.0839 5.51054 22.3692 5.40354 22.305C5.29617 22.2357 5.17003 22.2013 5.04236 22.2064C4.91469 22.2115 4.79171 22.2559 4.69021 22.3335ZM29.2075 15.4998L25.1058 19.7584C25.1515 20.1025 25.1258 20.4523 25.0303 20.786C24.9347 21.1197 24.7714 21.4302 24.5505 21.6979C24.3296 21.9657 24.0558 22.185 23.7464 22.3423C23.4369 22.4995 23.0983 22.5912 22.7518 22.6117L22.6163 22.6189H17.5017C17.4128 22.6368 17.3211 22.6355 17.2328 22.615C17.1444 22.5945 17.0615 22.5553 16.9896 22.5001C16.9177 22.4449 16.8584 22.3749 16.8158 22.2949C16.7732 22.2148 16.7482 22.1266 16.7426 22.0361C16.7369 21.9456 16.7507 21.855 16.783 21.7703C16.8153 21.6855 16.8654 21.6087 16.9299 21.545C16.9944 21.4812 17.0718 21.4321 17.1569 21.4007C17.242 21.3694 17.3328 21.3567 17.4232 21.3634H22.6163C22.7889 21.3813 22.9634 21.3636 23.1289 21.3114C23.2944 21.2592 23.4475 21.1736 23.5787 21.0599C23.7098 20.9463 23.8163 20.8069 23.8915 20.6505C23.9667 20.4941 24.009 20.3239 24.0158 20.1505C24.0227 19.977 23.9939 19.804 23.9312 19.6422C23.8686 19.4803 23.7735 19.333 23.6517 19.2094C23.5299 19.0857 23.384 18.9883 23.2231 18.9233C23.0622 18.8582 22.8897 18.8268 22.7161 18.8311H15.4972C15.4109 18.8296 15.3259 18.8102 15.2475 18.774C14.3779 18.3903 13.4374 18.1935 12.4869 18.1962C9.89041 18.1962 7.77894 19.3518 6.60908 21.4062L6.50208 21.6059L11.4169 26.5565L11.9519 26.0429C12.4885 25.5157 13.1983 25.2013 13.9493 25.1583H22.4593C23.5293 25.1583 24.5494 24.766 25.3555 24.0598L25.4981 23.9171L31.1263 17.1405C31.3405 16.8817 31.4448 16.5494 31.4168 16.2147C31.3888 15.88 31.2307 15.5695 30.9765 15.35C30.851 15.2428 30.7053 15.1616 30.5481 15.111C30.3909 15.0605 30.2253 15.0416 30.0607 15.0556C29.8962 15.0695 29.7361 15.1159 29.5896 15.1922C29.4431 15.2684 29.3133 15.373 29.2075 15.4998ZM19.178 0.648193C20.9494 0.746666 22.6158 1.51971 23.835 2.80854C25.0541 4.09736 25.7335 5.80412 25.7335 7.57823C25.7335 9.35233 25.0541 11.0591 23.835 12.3479C22.6158 13.6367 20.9494 14.4098 19.178 14.5083C17.4066 14.4098 15.7402 13.6367 14.5211 12.3479C13.3019 11.0591 12.6225 9.35233 12.6225 7.57823C12.6225 5.80412 13.3019 4.09736 14.5211 2.80854C15.7402 1.51971 17.4066 0.746666 19.178 0.648193ZM19.178 1.91079C17.7232 1.98379 16.352 2.61312 15.3481 3.66864C14.3442 4.72415 13.7844 6.12512 13.7844 7.58179C13.7844 9.03847 14.3442 10.4394 15.3481 11.495C16.352 12.5505 17.7232 13.1798 19.178 13.2528C20.6329 13.1798 22.004 12.5505 23.0079 11.495C24.0118 10.4394 24.5716 9.03847 24.5716 7.58179C24.5716 6.12512 24.0118 4.72415 23.0079 3.66864C22.004 2.61312 20.6329 1.98379 19.178 1.91079ZM19.1994 2.83813C19.5275 2.83813 19.7986 3.12346 19.7986 3.46586V4.19346C20.0768 4.28619 20.3764 4.45739 20.6831 4.76413C20.9257 5.00666 20.9257 5.40613 20.6974 5.64866C20.6437 5.70834 20.5782 5.75631 20.5051 5.78959C20.432 5.82286 20.3528 5.84072 20.2725 5.84206C20.1922 5.8434 20.1125 5.82819 20.0383 5.79737C19.9641 5.76655 19.8971 5.72078 19.8414 5.66293C19.6345 5.44893 19.4134 5.33479 19.1994 5.33479C18.8641 5.33479 18.5931 5.62013 18.5931 5.96253C18.5931 6.30493 18.8641 6.59026 19.1994 6.59026C20.1981 6.59026 21.0041 7.43199 21.0041 8.46633C21.0041 9.27953 20.5048 9.97859 19.7986 10.2354V10.963C19.7986 11.3125 19.5275 11.5907 19.1994 11.5907C19.1182 11.5898 19.0381 11.5728 18.9635 11.5406C18.889 11.5085 18.8215 11.4619 18.7651 11.4035C18.7087 11.3451 18.6645 11.2761 18.635 11.2005C18.6054 11.1249 18.5912 11.0442 18.5931 10.963V10.2354C18.1584 10.0718 17.778 9.79016 17.4945 9.42219C17.3903 9.29393 17.3395 9.13038 17.3528 8.96562C17.3661 8.80085 17.4424 8.64756 17.5659 8.53766C17.6258 8.48358 17.6963 8.44249 17.773 8.417C17.8496 8.3915 17.9306 8.38214 18.0111 8.38951C18.0915 8.39688 18.1695 8.42082 18.2402 8.45983C18.3109 8.49883 18.3727 8.55204 18.4219 8.61613C18.6644 8.92286 18.9426 9.08693 19.1994 9.08693C19.5275 9.08693 19.7986 8.80873 19.7986 8.46633C19.8005 8.38576 19.7865 8.30561 19.7574 8.23045C19.7283 8.1553 19.6847 8.08661 19.6291 8.02831C19.5734 7.97002 19.5068 7.92326 19.4331 7.89071C19.3594 7.85815 19.28 7.84045 19.1994 7.83859C18.9577 7.83395 18.7193 7.78174 18.4978 7.68494C18.2763 7.58814 18.076 7.44865 17.9084 7.27443C17.7408 7.10021 17.6092 6.89468 17.521 6.66958C17.4329 6.44448 17.3899 6.20422 17.3947 5.96253C17.3947 5.14933 17.894 4.45026 18.5931 4.19346V3.46586C18.5931 3.11633 18.8641 2.83813 19.1994 2.83813Z" fill="#0049AD"/>
</g>
<defs>
<clipPath id="clip0_13070_5098">
<rect width="32.1" height="32.1" fill="white" transform="translate(0.574219 0.648193)"/>
</clipPath>
</defs>
</svg>
